<svg width="312" height="85" viewBox="0 0 312 85" fill="none" xmlns="http://www.w3.org/2000/svg">
<g filter="url(#filter0_d_132_240)">
<path d="M6.67754 24.9C7.57754 24.9 8.27754 25.3 8.77754 26.1C15.2109 36.7667 21.1275 46.9167 26.5275 56.55V26C26.5275 25.7333 26.6109 25.5 26.7775 25.3C26.9775 25.1 27.2275 25 27.5275 25H28.0275C28.3275 25 28.5609 25.1 28.7275 25.3C28.9275 25.5 29.0275 25.7333 29.0275 26V58.15C29.0275 58.8167 28.8275 59.3167 28.4275 59.65C28.0609 59.95 27.5275 60.1 26.8275 60.1C26.1275 60.1 25.5442 59.7333 25.0775 59L7.32754 28.55V59C7.32754 59.2667 7.22754 59.5 7.02754 59.7C6.82754 59.9 6.59421 60 6.32754 60H5.77754C5.51087 60 5.27754 59.9 5.07754 59.7C4.91087 59.5 4.82754 59.2667 4.82754 59V26.95C4.82754 25.5833 5.44421 24.9 6.67754 24.9ZM40.958 26.2C42.158 25.6667 43.208 25.3333 44.108 25.2C45.008 25.0667 45.9247 25 46.858 25C47.8247 25 48.7747 25.0833 49.708 25.25C50.6413 25.3833 51.6913 25.7167 52.858 26.25C54.058 26.7833 55.0913 27.4833 55.958 28.35C56.8247 29.1833 57.558 30.3833 58.158 31.95C58.758 33.4833 59.058 35.2667 59.058 37.3V47.45C59.058 49.55 58.7413 51.4 58.108 53C57.508 54.6 56.758 55.8333 55.858 56.7C54.9913 57.5667 53.9747 58.2667 52.808 58.8C50.9413 59.6333 48.9747 60.05 46.908 60.05C44.7413 60.05 42.8913 59.6833 41.358 58.95C39.858 58.2167 38.6747 57.4167 37.808 56.55C36.9413 55.6833 36.208 54.4667 35.608 52.9C35.008 51.3 34.708 49.4833 34.708 47.45V37.3C34.708 35.2 35.008 33.3667 35.608 31.8C36.2413 30.2333 36.9913 29.0333 37.858 28.2C38.7247 27.3667 39.758 26.7 40.958 26.2ZM51.558 28.45C50.6247 28.0167 49.7913 27.75 49.058 27.65C48.358 27.5167 47.6247 27.45 46.858 27.45C46.1247 27.45 45.3913 27.5167 44.658 27.65C43.9247 27.75 43.0747 28.0167 42.108 28.45C41.1747 28.85 40.358 29.4 39.658 30.1C38.958 30.7667 38.358 31.75 37.858 33.05C37.3913 34.3167 37.158 35.8 37.158 37.5V47.3C37.158 49 37.3913 50.5 37.858 51.8C38.358 53.1 38.958 54.1167 39.658 54.85C40.3913 55.55 41.2247 56.1167 42.158 56.55C43.0913 56.9833 43.9247 57.2667 44.658 57.4C45.4247 57.5333 46.1747 57.6 46.908 57.6C47.6413 57.6 48.3747 57.5333 49.108 57.4C49.8747 57.2667 50.7247 56.9833 51.658 56.55C52.5913 56.1167 53.408 55.55 54.108 54.85C54.808 54.1167 55.3913 53.1 55.858 51.8C56.358 50.5 56.608 49 56.608 47.3V37.5C56.608 35.8 56.358 34.3167 55.858 33.05C55.358 31.75 54.758 30.7667 54.058 30.1C53.358 29.4 52.5247 28.85 51.558 28.45ZM85.7303 25H86.2803C86.5803 25 86.8303 25.1 87.0303 25.3C87.3303 25.6333 87.3636 26.0167 87.1303 26.45L78.3803 42.15L87.7803 58.55C87.8803 58.75 87.9303 58.9333 87.9303 59.1C87.9303 59.7 87.5969 60 86.9303 60H86.3803C86.0136 60 85.7636 59.9 85.6303 59.7L77.0303 44.65L69.4303 58.65C68.8303 59.65 68.1636 60.15 67.4303 60.15C66.1636 60.15 65.5303 59.4833 65.5303 58.15V26C65.5303 25.7333 65.6136 25.5 65.7803 25.3C65.9803 25.1 66.2303 25 66.5303 25H67.0303C67.3303 25 67.5636 25.1 67.7303 25.3C67.9303 25.5 68.0303 25.7333 68.0303 26V56L77.9303 37.9L85.0303 25.3C85.1636 25.1 85.3969 25 85.7303 25ZM108.595 25H109.145C109.545 25 109.812 25.1333 109.945 25.4C110.078 25.6333 110.145 25.8333 110.145 26C110.145 26.1667 110.095 26.3333 109.995 26.5V26.45L101.545 41.85C101.278 42.25 101.095 42.5 100.995 42.6V59C100.995 59.2667 100.895 59.5 100.695 59.7C100.495 59.9 100.262 60 99.9951 60H99.4951C99.2285 60 98.9951 59.9 98.7951 59.7C98.5951 59.5 98.4951 59.2667 98.4951 59V42.55C98.3285 42.3833 98.1785 42.1833 98.0451 41.95L88.9451 26.5C88.8451 26.3333 88.7951 26.1667 88.7951 26C88.7951 25.8333 88.8618 25.6333 88.9951 25.4C89.1285 25.1333 89.3951 25 89.7951 25H90.3951C90.7285 25 91.0118 25.15 91.2451 25.45L99.7451 40.05L107.795 25.3C107.928 25.1 108.195 25 108.595 25Z" fill="#112A85"/>
<path d="M8.77754 26.1L9.63385 25.5835L9.62975 25.5767L9.62554 25.57L8.77754 26.1ZM26.5275 56.55L25.6552 57.039L27.5275 60.3791V56.55H26.5275ZM26.7775 25.3L26.0704 24.5929L26.0384 24.625L26.0093 24.6598L26.7775 25.3ZM28.7275 25.3L27.9593 25.9402L27.9884 25.975L28.0204 26.0071L28.7275 25.3ZM28.4275 59.65L29.0608 60.424L29.0677 60.4182L28.4275 59.65ZM25.0775 59L24.2136 59.5036L24.2234 59.5204L24.2339 59.5369L25.0775 59ZM7.32754 28.55L8.19147 28.0464L6.32754 24.8488V28.55H7.32754ZM7.02754 59.7L6.32043 58.9929H6.32043L7.02754 59.7ZM5.07754 59.7L4.30932 60.3402L4.33836 60.375L4.37043 60.4071L5.07754 59.7ZM6.67754 25.9C7.21309 25.9 7.60161 26.1053 7.92954 26.63L9.62554 25.57C8.95346 24.4947 7.94198 23.9 6.67754 23.9V25.9ZM7.92123 26.6165C14.3498 37.2752 20.261 47.416 25.6552 57.039L27.3998 56.061C21.9941 46.4174 16.072 36.2582 9.63385 25.5835L7.92123 26.6165ZM27.5275 56.55V26H25.5275V56.55H27.5275ZM27.5275 26C27.5275 25.9725 27.5315 25.9621 27.5318 25.9613C27.5322 25.9602 27.5329 25.9586 27.5344 25.956C27.5359 25.9533 27.5392 25.948 27.5458 25.9402L26.0093 24.6598C25.689 25.0442 25.5275 25.5056 25.5275 26H27.5275ZM27.4847 26.0071C27.4902 26.0015 27.4926 26.0001 27.4916 26.0008C27.4905 26.0015 27.4885 26.0027 27.4864 26.0035C27.4845 26.0043 27.4854 26.0036 27.4908 26.0026C27.4964 26.0016 27.5082 26 27.5275 26V24C26.9802 24 26.4702 24.1931 26.0704 24.5929L27.4847 26.0071ZM27.5275 26H28.0275V24H27.5275V26ZM28.0275 26C28.0664 26 28.0619 26.0063 28.0336 25.9941C28.0199 25.9883 28.0047 25.9798 27.99 25.9687C27.9754 25.9578 27.9653 25.9473 27.9593 25.9402L29.4958 24.6598C29.109 24.1957 28.5738 24 28.0275 24V26ZM28.0204 26.0071C28.0311 26.0178 28.0356 26.0241 28.0366 26.0255C28.0374 26.0267 28.0357 26.0244 28.0334 26.0189C28.031 26.0133 28.0292 26.0075 28.0282 26.0024C28.0272 25.9974 28.0275 25.9962 28.0275 26H30.0275C30.0275 25.4508 29.8096 24.9678 29.4346 24.5929L28.0204 26.0071ZM28.0275 26V58.15H30.0275V26H28.0275ZM28.0275 58.15C28.0275 58.6097 27.8983 58.7893 27.7874 58.8818L29.0677 60.4182C29.7568 59.844 30.0275 59.0236 30.0275 58.15H28.0275ZM27.7943 58.876C27.6743 58.9743 27.4032 59.1 26.8275 59.1V61.1C27.6518 61.1 28.4475 60.9258 29.0608 60.424L27.7943 58.876ZM26.8275 59.1C26.5545 59.1 26.2552 58.9879 25.9212 58.4631L24.2339 59.5369C24.8332 60.4787 25.7006 61.1 26.8275 61.1V59.1ZM25.9415 58.4964L8.19147 28.0464L6.46361 29.0536L24.2136 59.5036L25.9415 58.4964ZM6.32754 28.55V59H8.32754V28.55H6.32754ZM6.32754 59C6.32754 59.0038 6.32722 59.0026 6.32821 58.9976C6.32923 58.9925 6.33101 58.9867 6.33339 58.9811C6.33575 58.9756 6.33744 58.9733 6.3366 58.9745C6.33563 58.9759 6.33108 58.9822 6.32043 58.9929L7.73465 60.4071C8.10956 60.0322 8.32754 59.5492 8.32754 59H6.32754ZM6.32043 58.9929C6.30978 59.0035 6.30347 59.0081 6.30208 59.0091C6.30086 59.0099 6.30313 59.0082 6.30862 59.0059C6.31419 59.0035 6.32008 59.0017 6.32517 59.0007C6.33014 58.9997 6.33137 59 6.32754 59V61C6.87676 61 7.35974 60.782 7.73465 60.4071L6.32043 58.9929ZM6.32754 59H5.77754V61H6.32754V59ZM5.77754 59C5.77371 59 5.77494 58.9997 5.77991 59.0007C5.78499 59.0017 5.79089 59.0035 5.79646 59.0059C5.80195 59.0082 5.80422 59.0099 5.803 59.0091C5.8016 59.0081 5.7953 59.0035 5.78465 58.9929L4.37043 60.4071C4.74534 60.782 5.22832 61 5.77754 61V59ZM5.84576 59.0598C5.83922 59.052 5.83588 59.0467 5.83435 59.044C5.83286 59.0414 5.8322 59.0398 5.83178 59.0387C5.83151 59.0379 5.82754 59.0275 5.82754 59H3.82754C3.82754 59.4944 3.98897 59.9558 4.30932 60.3402L5.84576 59.0598ZM5.82754 59V26.95H3.82754V59H5.82754ZM5.82754 26.95C5.82754 26.3969 5.95454 26.1688 6.03243 26.0825C6.09272 26.0157 6.24303 25.9 6.67754 25.9V23.9C5.87872 23.9 5.10402 24.126 4.54765 24.7425C4.00887 25.3396 3.82754 26.1364 3.82754 26.95H5.82754ZM40.958 26.2L41.3426 27.1231L41.3534 27.1186L41.3641 27.1138L40.958 26.2ZM44.108 25.2L43.9615 24.2108L44.108 25.2ZM49.708 25.25L49.5322 26.2344L49.5494 26.2375L49.5666 26.2399L49.708 25.25ZM52.858 26.25L52.4422 27.1595L52.4519 27.1638L52.858 26.25ZM55.958 28.35L55.2509 29.0571L55.2578 29.064L55.2649 29.0708L55.958 28.35ZM58.158 31.95L57.2241 32.3077L57.2268 32.3144L58.158 31.95ZM58.108 53L57.1782 52.632L57.1749 52.6404L57.1717 52.6489L58.108 53ZM55.858 56.7L55.1644 55.9797L55.1576 55.9862L55.1509 55.9929L55.858 56.7ZM52.808 58.8L53.2157 59.7132L53.2238 59.7095L52.808 58.8ZM41.358 58.95L40.9188 59.8484L40.9266 59.8521L41.358 58.95ZM37.808 56.55L37.1009 57.2571L37.808 56.55ZM35.608 52.9L34.6717 53.2511L34.6742 53.2576L35.608 52.9ZM35.608 31.8L34.6809 31.4252L34.6774 31.4338L34.6742 31.4424L35.608 31.8ZM37.858 28.2L37.1649 27.4792V27.4792L37.858 28.2ZM51.558 28.45L51.1369 29.357L51.1561 29.3659L51.1757 29.374L51.558 28.45ZM49.058 27.65L48.8709 28.6323L48.8968 28.6373L48.9229 28.6408L49.058 27.65ZM44.658 27.65L44.7931 28.6408L44.8151 28.6378L44.8369 28.6339L44.658 27.65ZM42.108 28.45L42.5019 29.3691L42.5095 29.3659L42.5171 29.3625L42.108 28.45ZM39.658 30.1L40.3477 30.8241L40.3565 30.8157L40.3651 30.8071L39.658 30.1ZM37.858 33.05L36.9247 32.691L36.9221 32.6976L36.9197 32.7043L37.858 33.05ZM37.858 51.8L36.9168 52.1379L36.9206 52.1485L36.9247 52.159L37.858 51.8ZM39.658 54.85L38.9347 55.5405L38.9507 55.5573L38.9675 55.5734L39.658 54.85ZM42.158 56.55L42.5791 55.643L42.158 56.55ZM44.658 57.4L44.4791 58.3839L44.4867 58.3852L44.658 57.4ZM49.108 57.4L48.9367 56.4148L48.9291 56.4161L49.108 57.4ZM51.658 56.55L51.2369 55.643L51.658 56.55ZM54.108 54.85L54.8151 55.5571L54.8233 55.5489L54.8314 55.5405L54.108 54.85ZM55.858 51.8L54.9247 51.441L54.9206 51.4515L54.9168 51.4621L55.858 51.8ZM55.858 33.05L54.9246 33.409L54.9279 33.4172L55.858 33.05ZM54.058 30.1L53.3509 30.8071L53.3595 30.8157L53.3684 30.8241L54.058 30.1ZM41.3641 27.1138C42.5146 26.6025 43.474 26.3048 44.2546 26.1892L43.9615 24.2108C42.942 24.3618 41.8014 24.7308 40.5519 25.2862L41.3641 27.1138ZM44.2546 26.1892C45.1048 26.0632 45.9725 26 46.858 26V24C45.8769 24 44.9112 24.0701 43.9615 24.2108L44.2546 26.1892ZM46.858 26C47.7669 26 48.658 26.0783 49.5322 26.2344L49.8838 24.2656C48.8913 24.0883 47.8825 24 46.858 24V26ZM49.5666 26.2399C50.3779 26.3559 51.3336 26.6527 52.4422 27.1595L53.2738 25.3405C52.0491 24.7807 50.9048 24.4108 49.8494 24.26L49.5666 26.2399ZM52.4519 27.1638C53.5478 27.6509 54.4771 28.2833 55.2509 29.0571L56.6651 27.6429C55.7056 26.6834 54.5682 25.9158 53.2641 25.3362L52.4519 27.1638ZM55.2649 29.0708C55.9923 29.7703 56.6573 30.8274 57.2242 32.3076L59.0919 31.5924C58.4588 29.9392 57.657 28.5964 56.6511 27.6292L55.2649 29.0708ZM57.2268 32.3144C57.772 33.7079 58.058 35.363 58.058 37.3H60.058C60.058 35.1703 59.744 33.2588 59.0893 31.5856L57.2268 32.3144ZM58.058 37.3V47.45H60.058V37.3H58.058ZM58.058 47.45C58.058 49.451 57.7562 51.1718 57.1782 52.632L59.0378 53.368C59.7265 51.6282 60.058 49.649 60.058 47.45H58.058ZM57.1717 52.6489C56.6059 54.1577 55.925 55.2472 55.1644 55.9797L56.5517 57.4203C57.591 56.4195 58.4102 55.0423 59.0443 53.3511L57.1717 52.6489ZM55.1509 55.9929C54.3724 56.7714 53.4556 57.4044 52.3923 57.8905L53.2238 59.7095C54.4937 59.1289 55.6103 58.3619 56.5651 57.4071L55.1509 55.9929ZM52.4004 57.8869C50.6634 58.6623 48.8358 59.05 46.908 59.05V61.05C49.1136 61.05 51.2193 60.6044 53.2157 59.7131L52.4004 57.8869ZM46.908 59.05C44.851 59.05 43.1563 58.7016 41.7895 58.0479L40.9266 59.8521C42.6263 60.6651 44.6317 61.05 46.908 61.05V59.05ZM41.7972 58.0516C40.363 57.3505 39.2811 56.6089 38.5151 55.8429L37.1009 57.2571C38.0683 58.2245 39.353 59.0829 40.9188 59.8484L41.7972 58.0516ZM38.5151 55.8429C37.7772 55.105 37.1091 54.0234 36.5419 52.5424L34.6742 53.2576C35.307 54.91 36.1055 56.2617 37.1009 57.2571L38.5151 55.8429ZM36.5443 52.5489C35.9936 51.0802 35.708 49.3857 35.708 47.45H33.708C33.708 49.581 34.0224 51.5198 34.6717 53.2511L36.5443 52.5489ZM35.708 47.45V37.3H33.708V47.45H35.708ZM35.708 37.3C35.708 35.2927 35.9951 33.5854 36.5419 32.1576L34.6742 31.4424C34.021 33.1479 33.708 35.1073 33.708 37.3H35.708ZM36.5351 32.1748C37.1356 30.6893 37.8183 29.6254 38.5511 28.9208L37.1649 27.4792C36.1644 28.4412 35.3471 29.7773 34.6809 31.4252L36.5351 32.1748ZM38.5511 28.9208C39.3214 28.1802 40.2478 27.5793 41.3426 27.1231L40.5734 25.2769C39.2683 25.8207 38.128 26.5531 37.1649 27.4792L38.5511 28.9208ZM51.9791 27.543C50.9877 27.0827 50.0556 26.7768 49.1931 26.6592L48.9229 28.6408C49.5271 28.7232 50.2616 28.9506 51.1369 29.357L51.9791 27.543ZM49.2451 26.6677C48.479 26.5217 47.6828 26.45 46.858 26.45V28.45C47.5666 28.45 48.237 28.5116 48.8709 28.6323L49.2451 26.6677ZM46.858 26.45C46.0637 26.45 45.2705 26.5222 44.4791 26.6661L44.8369 28.6339C45.5122 28.5111 46.1856 28.45 46.858 28.45V26.45ZM44.5229 26.6592C43.6639 26.7763 42.7186 27.0804 41.699 27.5375L42.5171 29.3625C43.4308 28.9529 44.1854 28.7237 44.7931 28.6408L44.5229 26.6592ZM41.7141 27.5309C40.6669 27.9797 39.7432 28.6006 38.9509 29.3929L40.3651 30.8071C40.9728 30.1994 41.6825 29.7203 42.5019 29.3691L41.7141 27.5309ZM38.9684 29.3759C38.1245 30.1795 37.4561 31.3092 36.9247 32.691L38.7914 33.409C39.2599 32.1908 39.7915 31.3538 40.3477 30.8241L38.9684 29.3759ZM36.9197 32.7043C36.4032 34.1062 36.158 35.7113 36.158 37.5H38.158C38.158 35.8887 38.3795 34.5272 38.7964 33.3957L36.9197 32.7043ZM36.158 37.5V47.3H38.158V37.5H36.158ZM36.158 47.3C36.158 49.0895 36.4034 50.7077 36.9168 52.1379L38.7992 51.4621C38.3793 50.2923 38.158 48.9105 38.158 47.3H36.158ZM36.9247 52.159C37.4555 53.5391 38.1162 54.6831 38.9347 55.5405L40.3814 54.1595C39.7998 53.5503 39.2605 52.6609 38.7914 51.441L36.9247 52.159ZM38.9675 55.5734C39.7812 56.35 40.7058 56.9783 41.7369 57.457L42.5791 55.643C41.7435 55.255 41.0015 54.75 40.3485 54.1266L38.9675 55.5734ZM41.7369 57.457C42.7204 57.9136 43.6372 58.2308 44.4791 58.3839L44.8369 56.4161C44.2122 56.3025 43.4623 56.053 42.5791 55.643L41.7369 57.457ZM44.4867 58.3852C45.3065 58.5278 46.1139 58.6 46.908 58.6V56.6C46.2355 56.6 45.5429 56.5389 44.8293 56.4148L44.4867 58.3852ZM46.908 58.6C47.7023 58.6 48.4955 58.5278 49.2869 58.3839L48.9291 56.4161C48.2538 56.5389 47.5804 56.6 46.908 56.6V58.6ZM49.2794 58.3852C50.1549 58.2329 51.0902 57.9161 52.0791 57.457L51.2369 55.643C50.3591 56.0505 49.5944 56.3004 48.9367 56.4148L49.2794 58.3852ZM52.0791 57.457C53.1145 56.9763 54.029 56.3432 54.8151 55.5571L53.4009 54.1429C52.787 54.7568 52.0682 55.257 51.2369 55.643L52.0791 57.457ZM54.8314 55.5405C55.656 54.6765 56.3014 53.5245 56.7992 52.1379L54.9168 51.4621C54.4812 52.6755 53.96 53.5568 53.3847 54.1595L54.8314 55.5405ZM56.7914 52.159C57.3439 50.7222 57.608 49.0965 57.608 47.3H55.608C55.608 48.9035 55.3721 50.2778 54.9247 51.441L56.7914 52.159ZM57.608 47.3V37.5H55.608V47.3H57.608ZM57.608 37.5C57.608 35.7044 57.3442 34.0915 56.7882 32.6828L54.9279 33.4172C55.3718 34.5419 55.608 35.8956 55.608 37.5H57.608ZM56.7914 32.691C56.2599 31.3092 55.5915 30.1795 54.7477 29.3759L53.3684 30.8241C53.9245 31.3538 54.4561 32.1908 54.9247 33.409L56.7914 32.691ZM54.7651 29.3929C53.967 28.5947 53.0215 27.9733 51.9404 27.526L51.1757 29.374C52.0279 29.7267 52.7491 30.2053 53.3509 30.8071L54.7651 29.3929ZM87.0303 25.3L87.7736 24.631L87.756 24.6115L87.7374 24.5929L87.0303 25.3ZM87.1303 26.45L88.0038 26.9368L88.0073 26.9305L88.0107 26.9241L87.1303 26.45ZM78.3803 42.15L77.5068 41.6632L77.2316 42.1569L77.5127 42.6473L78.3803 42.15ZM87.7803 58.55L88.6747 58.1028L88.662 58.0774L88.6479 58.0527L87.7803 58.55ZM85.6303 59.7L84.762 60.1961L84.7791 60.226L84.7982 60.2547L85.6303 59.7ZM77.0303 44.65L77.8985 44.1539L77.0079 42.5952L76.1514 44.1729L77.0303 44.65ZM69.4303 58.65L70.2878 59.1645L70.2989 59.146L70.3091 59.1271L69.4303 58.65ZM65.7803 25.3L65.0732 24.5929L65.0411 24.625L65.0121 24.6598L65.7803 25.3ZM67.7303 25.3L66.9621 25.9402L66.9911 25.975L67.0232 26.0071L67.7303 25.3ZM68.0303 56H67.0303L68.9076 56.4799L68.0303 56ZM77.9303 37.9L77.059 37.409L77.0529 37.4201L77.9303 37.9ZM85.0303 25.3L84.1982 24.7453L84.1775 24.7765L84.1591 24.8091L85.0303 25.3ZM85.7303 26H86.2803V24H85.7303V26ZM86.2803 26C86.2996 26 86.3114 26.0016 86.317 26.0026C86.3224 26.0036 86.3233 26.0043 86.3214 26.0035C86.3193 26.0027 86.3173 26.0015 86.3162 26.0008C86.3152 26.0001 86.3176 26.0015 86.3232 26.0071L87.7374 24.5929C87.3376 24.1931 86.8276 24 86.2803 24V26ZM86.287 25.969C86.3043 25.9882 86.304 25.9928 86.2986 25.9811C86.2959 25.9754 86.2926 25.9671 86.2898 25.9565C86.2869 25.9458 86.285 25.9348 86.284 25.9241C86.2831 25.9135 86.2833 25.9051 86.2838 25.8997C86.2842 25.8944 86.2848 25.8931 86.284 25.8965C86.2822 25.9037 86.2746 25.9298 86.2498 25.9759L88.0107 26.9241C88.1942 26.5833 88.3142 26.1843 88.2765 25.7509C88.238 25.3083 88.0439 24.9314 87.7736 24.631L86.287 25.969ZM86.2568 25.9632L77.5068 41.6632L79.2538 42.6368L88.0038 26.9368L86.2568 25.9632ZM77.5127 42.6473L86.9127 59.0473L88.6479 58.0527L79.2479 41.6527L77.5127 42.6473ZM86.8858 58.9972C86.939 59.1036 86.9303 59.1323 86.9303 59.1H88.9303C88.9303 58.7344 88.8215 58.3964 88.6747 58.1028L86.8858 58.9972ZM86.9303 59.1C86.9303 59.16 86.9217 59.169 86.93 59.1464C86.9345 59.1344 86.943 59.1157 86.9576 59.0937C86.9724 59.0715 86.9906 59.0503 87.0113 59.0317C87.0544 58.9929 87.087 58.9839 87.0804 58.9859C87.0703 58.989 87.0251 59 86.9303 59V61C87.3933 61 87.9272 60.8981 88.3492 60.5183C88.7913 60.1205 88.9303 59.583 88.9303 59.1H86.9303ZM86.9303 59H86.3803V61H86.9303V59ZM86.3803 59C86.2811 59 86.2617 58.9855 86.2892 58.9965C86.3053 59.003 86.3344 59.0171 86.3685 59.0437C86.4033 59.071 86.4358 59.1056 86.4623 59.1453L84.7982 60.2547C85.2002 60.8577 85.864 61 86.3803 61V59ZM86.4985 59.2039L77.8985 44.1539L76.162 45.1461L84.762 60.1961L86.4985 59.2039ZM76.1514 44.1729L68.5514 58.1729L70.3091 59.1271L77.9091 45.1271L76.1514 44.1729ZM68.5728 58.1355C68.0412 59.0215 67.6385 59.15 67.4303 59.15V61.15C68.6887 61.15 69.6194 60.2785 70.2878 59.1645L68.5728 58.1355ZM67.4303 59.15C66.9645 59.15 66.7956 59.03 66.7303 58.9613C66.6559 58.8829 66.5303 58.675 66.5303 58.15H64.5303C64.5303 58.9584 64.7214 59.7504 65.2803 60.3387C65.8483 60.9367 66.6293 61.15 67.4303 61.15V59.15ZM66.5303 58.15V26H64.5303V58.15H66.5303ZM66.5303 26C66.5303 25.9725 66.5342 25.9621 66.5345 25.9613C66.5349 25.9602 66.5356 25.9586 66.5371 25.956C66.5386 25.9533 66.542 25.948 66.5485 25.9402L65.0121 24.6598C64.6917 25.0442 64.5303 25.5056 64.5303 26H66.5303ZM66.4874 26.0071C66.493 26.0015 66.4953 26.0001 66.4944 26.0008C66.4932 26.0015 66.4912 26.0027 66.4892 26.0035C66.4872 26.0043 66.4881 26.0036 66.4935 26.0026C66.4991 26.0016 66.5109 26 66.5303 26V24C65.9829 24 65.473 24.1931 65.0732 24.5929L66.4874 26.0071ZM66.5303 26H67.0303V24H66.5303V26ZM67.0303 26C67.0691 26 67.0647 26.0063 67.0364 25.9941C67.0226 25.9883 67.0075 25.9798 66.9928 25.9687C66.9782 25.9578 66.968 25.9473 66.9621 25.9402L68.4985 24.6598C68.1117 24.1957 67.5766 24 67.0303 24V26ZM67.0232 26.0071C67.0338 26.0178 67.0384 26.0241 67.0393 26.0255C67.0402 26.0267 67.0385 26.0244 67.0361 26.0189C67.0337 26.0133 67.032 26.0075 67.0309 26.0024C67.03 25.9974 67.0303 25.9962 67.0303 26H69.0303C69.0303 25.4508 68.8123 24.9678 68.4374 24.5929L67.0232 26.0071ZM67.0303 26V56H69.0303V26H67.0303ZM68.9076 56.4799L78.8076 38.3799L77.0529 37.4201L67.1529 55.5201L68.9076 56.4799ZM78.8015 38.3909L85.9015 25.7909L84.1591 24.8091L77.0591 37.4091L78.8015 38.3909ZM85.8623 25.8547C85.8415 25.886 85.8143 25.9165 85.7823 25.9427C85.7505 25.9687 85.7209 25.9848 85.6992 25.9941C85.659 26.0114 85.6587 26 85.7303 26V24C85.2038 24 84.5836 24.1672 84.1982 24.7453L85.8623 25.8547ZM109.945 25.4L109.051 25.8472L109.063 25.872L109.077 25.8961L109.945 25.4ZM109.995 26.5H108.995V30.1103L110.853 27.0145L109.995 26.5ZM109.995 26.45H110.995L109.118 25.969L109.995 26.45ZM101.545 41.85L102.377 42.4047L102.401 42.3688L102.422 42.331L101.545 41.85ZM100.995 42.6L100.288 41.8929L99.9951 42.1858V42.6H100.995ZM98.4951 42.55H99.4951V42.1358L99.2022 41.8429L98.4951 42.55ZM98.0451 41.95L98.9134 41.4538L98.9068 41.4425L98.0451 41.95ZM88.9451 26.5L89.8068 25.9925L89.8026 25.9855L88.9451 26.5ZM88.9951 25.4L89.8634 25.8961L89.8771 25.872L89.8895 25.8472L88.9951 25.4ZM91.2451 25.45L92.1093 24.9469L92.0756 24.889L92.0345 24.8361L91.2451 25.45ZM99.7451 40.05L98.8809 40.5531L99.7733 42.0859L100.623 40.5291L99.7451 40.05ZM107.795 25.3L106.963 24.7453L106.939 24.7821L106.917 24.8209L107.795 25.3ZM108.595 26H109.145V24H108.595V26ZM109.145 26C109.24 26 109.243 26.0167 109.198 25.9944C109.174 25.9823 109.143 25.9621 109.113 25.9321C109.083 25.9021 109.063 25.8714 109.051 25.8472L110.84 24.9528C110.478 24.2306 109.773 24 109.145 24V26ZM109.077 25.8961C109.119 25.9704 109.139 26.018 109.146 26.0412C109.154 26.065 109.145 26.0483 109.145 26H111.145C111.145 25.5836 110.986 25.2051 110.813 24.9039L109.077 25.8961ZM109.145 26C109.145 25.9915 109.146 25.9835 109.147 25.9767C109.148 25.9698 109.149 25.965 109.15 25.9627C109.151 25.9577 109.15 25.9652 109.138 25.9855L110.853 27.0145C111.03 26.7186 111.145 26.3762 111.145 26H109.145ZM110.995 26.5V26.45H108.995V26.5H110.995ZM109.118 25.969L100.668 41.369L102.422 42.331L110.872 26.931L109.118 25.969ZM100.713 41.2953C100.584 41.4888 100.481 41.6378 100.401 41.7461C100.313 41.8666 100.28 41.9008 100.288 41.8929L101.702 43.3071C101.886 43.1234 102.125 42.783 102.377 42.4047L100.713 41.2953ZM99.9951 42.6V59H101.995V42.6H99.9951ZM99.9951 59C99.9951 59.0038 99.9948 59.0026 99.9958 58.9976C99.9968 58.9925 99.9986 58.9867 100.001 58.9811C100.003 58.9756 100.005 58.9733 100.004 58.9745C100.003 58.9759 99.9987 58.9822 99.988 58.9929L101.402 60.4071C101.777 60.0322 101.995 59.5492 101.995 59H99.9951ZM99.988 58.9929C99.9774 59.0035 99.9711 59.0081 99.9697 59.0091C99.9684 59.0099 99.9707 59.0082 99.9762 59.0059C99.9818 59.0035 99.9877 59.0017 99.9928 59.0007C99.9977 58.9997 99.9989 59 99.9951 59V61C100.544 61 101.027 60.782 101.402 60.4071L99.988 58.9929ZM99.9951 59H99.4951V61H99.9951V59ZM99.4951 59C99.4913 59 99.4925 58.9997 99.4975 59.0007C99.5026 59.0017 99.5085 59.0035 99.514 59.0059C99.5195 59.0082 99.5218 59.0099 99.5206 59.0091C99.5192 59.0081 99.5129 59.0035 99.5022 58.9929L98.088 60.4071C98.4629 60.782 98.9459 61 99.4951 61V59ZM99.5022 58.9929C99.4916 58.9822 99.487 58.9759 99.4861 58.9745C99.4852 58.9733 99.4869 58.9756 99.4893 58.9811C99.4917 58.9867 99.4934 58.9925 99.4944 58.9976C99.4954 59.0026 99.4951 59.0038 99.4951 59H97.4951C97.4951 59.5492 97.7131 60.0322 98.088 60.4071L99.5022 58.9929ZM99.4951 59V42.55H97.4951V59H99.4951ZM99.2022 41.8429C99.1065 41.7471 99.0086 41.6206 98.9134 41.4539L97.1769 42.4461C97.3483 42.7461 97.5504 43.0195 97.788 43.2571L99.2022 41.8429ZM98.9068 41.4425L89.8068 25.9925L88.0835 27.0075L97.1835 42.4575L98.9068 41.4425ZM89.8026 25.9855C89.7905 25.9652 89.789 25.9577 89.7904 25.9627C89.7912 25.965 89.7924 25.9698 89.7934 25.9767C89.7945 25.9835 89.7951 25.9915 89.7951 26H87.7951C87.7951 26.3762 87.9101 26.7186 88.0876 27.0145L89.8026 25.9855ZM89.7951 26C89.7951 26.0483 89.7859 26.065 89.7938 26.0412C89.8016 26.018 89.8209 25.9704 89.8634 25.8961L88.1269 24.9039C87.9547 25.2051 87.7951 25.5836 87.7951 26H89.7951ZM89.8895 25.8472C89.8774 25.8714 89.8573 25.9021 89.8272 25.9321C89.7972 25.9621 89.7666 25.9823 89.7423 25.9944C89.6977 26.0167 89.6998 26 89.7951 26V24C89.1674 24 88.4618 24.2306 88.1007 24.9528L89.8895 25.8472ZM89.7951 26H90.3951V24H89.7951V26ZM90.3951 26C90.4028 26 90.4035 26.0008 90.3994 25.9998C90.3951 25.9988 90.3914 25.9972 90.3897 25.9963C90.3853 25.994 90.4101 26.0052 90.4558 26.0639L92.0345 24.8361C91.6418 24.3312 91.083 24 90.3951 24V26ZM90.3809 25.9531L98.8809 40.5531L100.609 39.5469L92.1093 24.9469L90.3809 25.9531ZM100.623 40.5291L108.673 25.7791L106.917 24.8209L98.8673 39.5709L100.623 40.5291ZM108.627 25.8547C108.595 25.9028 108.557 25.941 108.52 25.9687C108.484 25.9956 108.456 26.0075 108.446 26.0113C108.437 26.0149 108.442 26.0116 108.468 26.0077C108.495 26.0038 108.536 26 108.595 26V24C108.086 24 107.379 24.1214 106.963 24.7453L108.627 25.8547Z" fill="#FFFA7B"/>
</g>
<g filter="url(#filter1_d_132_240)">
<path d="M216.268 28.8H216.768C217.434 28.8 217.768 29.1167 217.768 29.75V59C217.768 59.2667 217.668 59.5 217.468 59.7C217.301 59.9 217.068 60 216.768 60H216.268C215.968 60 215.718 59.9 215.518 59.7C215.351 59.5 215.268 59.2667 215.268 59V29.75C215.268 29.1167 215.601 28.8 216.268 28.8ZM205.468 25H227.668C227.968 25 228.201 25.1 228.368 25.3C228.568 25.5 228.668 25.7333 228.668 26V26.55C228.668 27.15 228.334 27.45 227.668 27.45H205.468C204.801 27.45 204.468 27.15 204.468 26.55V26C204.468 25.7333 204.568 25.5 204.768 25.3C204.968 25.1 205.201 25 205.468 25ZM237.968 26.2C239.168 25.6667 240.218 25.3333 241.118 25.2C242.018 25.0667 242.934 25 243.868 25C244.834 25 245.784 25.0833 246.718 25.25C247.651 25.3833 248.701 25.7167 249.868 26.25C251.068 26.7833 252.101 27.4833 252.968 28.35C253.834 29.1833 254.568 30.3833 255.168 31.95C255.768 33.4833 256.068 35.2667 256.068 37.3V47.45C256.068 49.55 255.751 51.4 255.118 53C254.518 54.6 253.768 55.8333 252.868 56.7C252.001 57.5667 250.984 58.2667 249.818 58.8C247.951 59.6333 245.984 60.05 243.918 60.05C241.751 60.05 239.901 59.6833 238.368 58.95C236.868 58.2167 235.684 57.4167 234.818 56.55C233.951 55.6833 233.218 54.4667 232.618 52.9C232.018 51.3 231.718 49.4833 231.718 47.45V37.3C231.718 35.2 232.018 33.3667 232.618 31.8C233.251 30.2333 234.001 29.0333 234.868 28.2C235.734 27.3667 236.768 26.7 237.968 26.2ZM248.568 28.45C247.634 28.0167 246.801 27.75 246.068 27.65C245.368 27.5167 244.634 27.45 243.868 27.45C243.134 27.45 242.401 27.5167 241.668 27.65C240.934 27.75 240.084 28.0167 239.118 28.45C238.184 28.85 237.368 29.4 236.668 30.1C235.968 30.7667 235.368 31.75 234.868 33.05C234.401 34.3167 234.168 35.8 234.168 37.5V47.3C234.168 49 234.401 50.5 234.868 51.8C235.368 53.1 235.968 54.1167 236.668 54.85C237.401 55.55 238.234 56.1167 239.168 56.55C240.101 56.9833 240.934 57.2667 241.668 57.4C242.434 57.5333 243.184 57.6 243.918 57.6C244.651 57.6 245.384 57.5333 246.118 57.4C246.884 57.2667 247.734 56.9833 248.668 56.55C249.601 56.1167 250.418 55.55 251.118 54.85C251.818 54.1167 252.401 53.1 252.868 51.8C253.368 50.5 253.618 49 253.618 47.3V37.5C253.618 35.8 253.368 34.3167 252.868 33.05C252.368 31.75 251.768 30.7667 251.068 30.1C250.368 29.4 249.534 28.85 248.568 28.45ZM282.74 25H283.29C283.59 25 283.84 25.1 284.04 25.3C284.34 25.6333 284.373 26.0167 284.14 26.45L275.39 42.15L284.79 58.55C284.89 58.75 284.94 58.9333 284.94 59.1C284.94 59.7 284.607 60 283.94 60H283.39C283.023 60 282.773 59.9 282.64 59.7L274.04 44.65L266.44 58.65C265.84 59.65 265.173 60.15 264.44 60.15C263.173 60.15 262.54 59.4833 262.54 58.15V26C262.54 25.7333 262.623 25.5 262.79 25.3C262.99 25.1 263.24 25 263.54 25H264.04C264.34 25 264.573 25.1 264.74 25.3C264.94 25.5 265.04 25.7333 265.04 26V56L274.94 37.9L282.04 25.3C282.173 25.1 282.407 25 282.74 25ZM305.605 25H306.155C306.555 25 306.822 25.1333 306.955 25.4C307.088 25.6333 307.155 25.8333 307.155 26C307.155 26.1667 307.105 26.3333 307.005 26.5V26.45L298.555 41.85C298.288 42.25 298.105 42.5 298.005 42.6V59C298.005 59.2667 297.905 59.5 297.705 59.7C297.505 59.9 297.272 60 297.005 60H296.505C296.238 60 296.005 59.9 295.805 59.7C295.605 59.5 295.505 59.2667 295.505 59V42.55C295.338 42.3833 295.188 42.1833 295.055 41.95L285.955 26.5C285.855 26.3333 285.805 26.1667 285.805 26C285.805 25.8333 285.872 25.6333 286.005 25.4C286.138 25.1333 286.405 25 286.805 25H287.405C287.738 25 288.022 25.15 288.255 25.45L296.755 40.05L304.805 25.3C304.938 25.1 305.205 25 305.605 25Z" fill="#112A85"/>
<path d="M217.468 59.7L216.761 58.9929L216.729 59.025L216.7 59.0598L217.468 59.7ZM215.518 59.7L214.75 60.3402L214.779 60.375L214.811 60.4071L215.518 59.7ZM228.368 25.3L227.6 25.9402L227.629 25.975L227.661 26.0071L228.368 25.3ZM204.768 25.3L205.475 26.0071L205.475 26.0071L204.768 25.3ZM216.268 29.8H216.768V27.8H216.268V29.8ZM216.768 29.8C216.812 29.8 216.845 29.8026 216.868 29.8058C216.891 29.8089 216.902 29.8122 216.903 29.8127C216.905 29.8132 216.897 29.8107 216.882 29.8024C216.867 29.7938 216.848 29.7808 216.829 29.7625C216.81 29.7441 216.794 29.7242 216.782 29.7051C216.77 29.6863 216.764 29.6719 216.762 29.6655C216.76 29.6594 216.761 29.662 216.763 29.676C216.765 29.6902 216.768 29.7143 216.768 29.75H218.768C218.768 29.2657 218.638 28.7222 218.207 28.3125C217.785 27.9119 217.243 27.8 216.768 27.8V29.8ZM216.768 29.75V59H218.768V29.75H216.768ZM216.768 59C216.768 59.0038 216.767 59.0026 216.768 58.9976C216.769 58.9925 216.771 58.9867 216.774 58.9811C216.776 58.9756 216.778 58.9733 216.777 58.9745C216.776 58.9759 216.771 58.9822 216.761 58.9929L218.175 60.4071C218.55 60.0322 218.768 59.5492 218.768 59H216.768ZM216.7 59.0598C216.706 59.0527 216.716 59.0422 216.73 59.0312C216.745 59.0202 216.76 59.0117 216.774 59.0059C216.802 58.9937 216.807 59 216.768 59V61C217.314 61 217.849 60.8043 218.236 60.3402L216.7 59.0598ZM216.768 59H216.268V61H216.768V59ZM216.268 59C216.248 59 216.237 58.9984 216.231 58.9974C216.226 58.9964 216.225 58.9957 216.227 58.9965C216.229 58.9973 216.231 58.9985 216.232 58.9992C216.233 58.9999 216.23 58.9985 216.225 58.9929L214.811 60.4071C215.21 60.8069 215.72 61 216.268 61V59ZM216.286 59.0598C216.279 59.052 216.276 59.0467 216.275 59.044C216.273 59.0414 216.272 59.0398 216.272 59.0387C216.272 59.0379 216.268 59.0275 216.268 59H214.268C214.268 59.4944 214.429 59.9558 214.75 60.3402L216.286 59.0598ZM216.268 59V29.75H214.268V59H216.268ZM216.268 29.75C216.268 29.7143 216.27 29.6902 216.272 29.676C216.274 29.662 216.276 29.6594 216.274 29.6655C216.272 29.6719 216.266 29.6863 216.254 29.7051C216.242 29.7242 216.226 29.7441 216.207 29.7625C216.187 29.7808 216.169 29.7938 216.154 29.8024C216.139 29.8107 216.131 29.8132 216.132 29.8127C216.134 29.8122 216.145 29.8089 216.168 29.8058C216.191 29.8026 216.224 29.8 216.268 29.8V27.8C215.793 27.8 215.251 27.9119 214.829 28.3125C214.398 28.7222 214.268 29.2657 214.268 29.75H216.268ZM205.468 26H227.668V24H205.468V26ZM227.668 26C227.707 26 227.702 26.0063 227.674 25.9941C227.66 25.9883 227.645 25.9798 227.63 25.9687C227.616 25.9578 227.606 25.9473 227.6 25.9402L229.136 24.6598C228.749 24.1957 228.214 24 227.668 24V26ZM227.661 26.0071C227.671 26.0178 227.676 26.0241 227.677 26.0255C227.678 26.0267 227.676 26.0244 227.674 26.0189C227.671 26.0133 227.669 26.0075 227.668 26.0024C227.667 25.9974 227.668 25.9962 227.668 26H229.668C229.668 25.4508 229.45 24.9678 229.075 24.5929L227.661 26.0071ZM227.668 26V26.55H229.668V26H227.668ZM227.668 26.55C227.668 26.61 227.659 26.619 227.668 26.5964C227.672 26.5844 227.68 26.5657 227.695 26.5437C227.71 26.5215 227.728 26.5003 227.749 26.4817C227.792 26.4429 227.825 26.4339 227.818 26.4359C227.808 26.439 227.763 26.45 227.668 26.45V28.45C228.131 28.45 228.665 28.3481 229.087 27.9683C229.529 27.5705 229.668 27.033 229.668 26.55H227.668ZM227.668 26.45H205.468V28.45H227.668V26.45ZM205.468 26.45C205.373 26.45 205.328 26.439 205.318 26.4359C205.311 26.4339 205.344 26.4429 205.387 26.4817C205.407 26.5003 205.426 26.5215 205.44 26.5437C205.455 26.5657 205.464 26.5844 205.468 26.5964C205.476 26.619 205.468 26.61 205.468 26.55H203.468C203.468 27.033 203.607 27.5705 204.049 27.9683C204.471 28.3481 205.005 28.45 205.468 28.45V26.45ZM205.468 26.55V26H203.468V26.55H205.468ZM205.468 26C205.468 25.9962 205.468 25.9974 205.467 26.0024C205.466 26.0075 205.464 26.0133 205.462 26.0189C205.46 26.0244 205.458 26.0267 205.459 26.0255C205.46 26.0241 205.464 26.0178 205.475 26.0071L204.061 24.5929C203.686 24.9678 203.468 25.4508 203.468 26H205.468ZM205.475 26.0071C205.486 25.9965 205.492 25.9919 205.493 25.9909C205.494 25.9901 205.492 25.9918 205.487 25.9941C205.481 25.9965 205.475 25.9983 205.47 25.9993C205.465 26.0003 205.464 26 205.468 26V24C204.919 24 204.436 24.218 204.061 24.5929L205.475 26.0071ZM237.968 26.2L238.352 27.1231L238.363 27.1186L238.374 27.1138L237.968 26.2ZM241.118 25.2L240.971 24.2108L241.118 25.2ZM246.718 25.25L246.542 26.2344L246.559 26.2375L246.576 26.2399L246.718 25.25ZM249.868 26.25L249.452 27.1595L249.462 27.1638L249.868 26.25ZM252.968 28.35L252.261 29.0571L252.268 29.064L252.275 29.0708L252.968 28.35ZM255.168 31.95L254.234 32.3077L254.237 32.3144L255.168 31.95ZM255.118 53L254.188 52.632L254.185 52.6404L254.181 52.6489L255.118 53ZM252.868 56.7L252.174 55.9797L252.167 55.9862L252.161 55.9929L252.868 56.7ZM249.818 58.8L250.225 59.7132L250.234 59.7095L249.818 58.8ZM238.368 58.95L237.929 59.8484L237.936 59.8521L238.368 58.95ZM234.818 56.55L234.111 57.2571L234.818 56.55ZM232.618 52.9L231.681 53.2511L231.684 53.2576L232.618 52.9ZM232.618 31.8L231.691 31.4252L231.687 31.4338L231.684 31.4424L232.618 31.8ZM234.868 28.2L234.175 27.4792L234.175 27.4792L234.868 28.2ZM248.568 28.45L248.147 29.357L248.166 29.3659L248.185 29.374L248.568 28.45ZM246.068 27.65L245.881 28.6323L245.907 28.6373L245.933 28.6408L246.068 27.65ZM241.668 27.65L241.803 28.6408L241.825 28.6378L241.847 28.6339L241.668 27.65ZM239.118 28.45L239.512 29.3691L239.519 29.3659L239.527 29.3625L239.118 28.45ZM236.668 30.1L237.357 30.8241L237.366 30.8157L237.375 30.8071L236.668 30.1ZM234.868 33.05L233.934 32.691L233.932 32.6976L233.929 32.7043L234.868 33.05ZM234.868 51.8L233.927 52.1379L233.93 52.1485L233.934 52.159L234.868 51.8ZM236.668 54.85L235.944 55.5405L235.96 55.5573L235.977 55.5734L236.668 54.85ZM239.168 56.55L239.589 55.643L239.168 56.55ZM241.668 57.4L241.489 58.3839L241.496 58.3852L241.668 57.4ZM246.118 57.4L245.946 56.4148L245.939 56.4161L246.118 57.4ZM248.668 56.55L248.247 55.643L248.668 56.55ZM251.118 54.85L251.825 55.5571L251.833 55.5489L251.841 55.5405L251.118 54.85ZM252.868 51.8L251.934 51.441L251.93 51.4515L251.927 51.4621L252.868 51.8ZM252.868 33.05L251.934 33.409L251.938 33.4172L252.868 33.05ZM251.068 30.1L250.361 30.8071L250.369 30.8157L250.378 30.8241L251.068 30.1ZM238.374 27.1138C239.524 26.6025 240.484 26.3048 241.264 26.1892L240.971 24.2108C239.952 24.3618 238.811 24.7308 237.562 25.2862L238.374 27.1138ZM241.264 26.1892C242.115 26.0632 242.982 26 243.868 26V24C242.887 24 241.921 24.0701 240.971 24.2108L241.264 26.1892ZM243.868 26C244.777 26 245.668 26.0783 246.542 26.2344L246.894 24.2656C245.901 24.0883 244.892 24 243.868 24V26ZM246.576 26.2399C247.388 26.3559 248.343 26.6527 249.452 27.1595L250.284 25.3405C249.059 24.7807 247.915 24.4108 246.859 24.26L246.576 26.2399ZM249.462 27.1638C250.558 27.6509 251.487 28.2833 252.261 29.0571L253.675 27.6429C252.715 26.6834 251.578 25.9158 250.274 25.3362L249.462 27.1638ZM252.275 29.0708C253.002 29.7703 253.667 30.8274 254.234 32.3076L256.102 31.5924C255.469 29.9392 254.667 28.5964 253.661 27.6292L252.275 29.0708ZM254.237 32.3144C254.782 33.7079 255.068 35.363 255.068 37.3H257.068C257.068 35.1703 256.754 33.2588 256.099 31.5856L254.237 32.3144ZM255.068 37.3V47.45H257.068V37.3H255.068ZM255.068 47.45C255.068 49.451 254.766 51.1718 254.188 52.632L256.048 53.368C256.736 51.6282 257.068 49.649 257.068 47.45H255.068ZM254.181 52.6489C253.616 54.1577 252.935 55.2472 252.174 55.9797L253.561 57.4203C254.601 56.4195 255.42 55.0423 256.054 53.3511L254.181 52.6489ZM252.161 55.9929C251.382 56.7714 250.465 57.4044 249.402 57.8905L250.234 59.7095C251.503 59.1289 252.62 58.3619 253.575 57.4071L252.161 55.9929ZM249.41 57.8869C247.673 58.6623 245.846 59.05 243.918 59.05V61.05C246.123 61.05 248.229 60.6044 250.225 59.7131L249.41 57.8869ZM243.918 59.05C241.861 59.05 240.166 58.7016 238.799 58.0479L237.936 59.8521C239.636 60.6651 241.641 61.05 243.918 61.05V59.05ZM238.807 58.0516C237.373 57.3505 236.291 56.6089 235.525 55.8429L234.111 57.2571C235.078 58.2245 236.363 59.0829 237.929 59.8484L238.807 58.0516ZM235.525 55.8429C234.787 55.105 234.119 54.0234 233.552 52.5424L231.684 53.2576C232.317 54.91 233.115 56.2617 234.111 57.2571L235.525 55.8429ZM233.554 52.5489C233.003 51.0802 232.718 49.3857 232.718 47.45H230.718C230.718 49.581 231.032 51.5198 231.681 53.2511L233.554 52.5489ZM232.718 47.45V37.3H230.718V47.45H232.718ZM232.718 37.3C232.718 35.2927 233.005 33.5854 233.552 32.1576L231.684 31.4424C231.031 33.1479 230.718 35.1073 230.718 37.3H232.718ZM233.545 32.1748C234.145 30.6893 234.828 29.6254 235.561 28.9208L234.175 27.4792C233.174 28.4412 232.357 29.7773 231.691 31.4252L233.545 32.1748ZM235.561 28.9208C236.331 28.1802 237.258 27.5793 238.352 27.1231L237.583 25.2769C236.278 25.8207 235.138 26.5531 234.175 27.4792L235.561 28.9208ZM248.989 27.543C247.997 27.0827 247.065 26.7768 246.203 26.6592L245.933 28.6408C246.537 28.7232 247.271 28.9506 248.147 29.357L248.989 27.543ZM246.255 26.6677C245.489 26.5217 244.693 26.45 243.868 26.45V28.45C244.576 28.45 245.247 28.5116 245.881 28.6323L246.255 26.6677ZM243.868 26.45C243.073 26.45 242.28 26.5222 241.489 26.6661L241.847 28.6339C242.522 28.5111 243.195 28.45 243.868 28.45V26.45ZM241.533 26.6592C240.674 26.7763 239.728 27.0804 238.709 27.5375L239.527 29.3625C240.441 28.9529 241.195 28.7237 241.803 28.6408L241.533 26.6592ZM238.724 27.5309C237.677 27.9797 236.753 28.6006 235.961 29.3929L237.375 30.8071C237.983 30.1994 238.692 29.7203 239.512 29.3691L238.724 27.5309ZM235.978 29.3759C235.134 30.1795 234.466 31.3092 233.934 32.691L235.801 33.409C236.27 32.1908 236.801 31.3538 237.357 30.8241L235.978 29.3759ZM233.929 32.7043C233.413 34.1062 233.168 35.7113 233.168 37.5H235.168C235.168 35.8887 235.389 34.5272 235.806 33.3957L233.929 32.7043ZM233.168 37.5V47.3H235.168V37.5H233.168ZM233.168 47.3C233.168 49.0895 233.413 50.7077 233.927 52.1379L235.809 51.4621C235.389 50.2923 235.168 48.9105 235.168 47.3H233.168ZM233.934 52.159C234.465 53.5391 235.126 54.6831 235.944 55.5405L237.391 54.1595C236.81 53.5503 236.27 52.6609 235.801 51.441L233.934 52.159ZM235.977 55.5734C236.791 56.35 237.716 56.9783 238.747 57.457L239.589 55.643C238.753 55.255 238.011 54.75 237.358 54.1266L235.977 55.5734ZM238.747 57.457C239.73 57.9136 240.647 58.2308 241.489 58.3839L241.847 56.4161C241.222 56.3025 240.472 56.053 239.589 55.643L238.747 57.457ZM241.496 58.3852C242.316 58.5278 243.124 58.6 243.918 58.6V56.6C243.245 56.6 242.553 56.5389 241.839 56.4148L241.496 58.3852ZM243.918 58.6C244.712 58.6 245.505 58.5278 246.297 58.3839L245.939 56.4161C245.264 56.5389 244.59 56.6 243.918 56.6V58.6ZM246.289 58.3852C247.165 58.2329 248.1 57.9161 249.089 57.457L248.247 55.643C247.369 56.0505 246.604 56.3004 245.946 56.4148L246.289 58.3852ZM249.089 57.457C250.124 56.9763 251.039 56.3432 251.825 55.5571L250.411 54.1429C249.797 54.7568 249.078 55.257 248.247 55.643L249.089 57.457ZM251.841 55.5405C252.666 54.6765 253.311 53.5245 253.809 52.1379L251.927 51.4621C251.491 52.6755 250.97 53.5568 250.394 54.1595L251.841 55.5405ZM253.801 52.159C254.354 50.7222 254.618 49.0965 254.618 47.3H252.618C252.618 48.9035 252.382 50.2778 251.934 51.441L253.801 52.159ZM254.618 47.3V37.5H252.618V47.3H254.618ZM254.618 37.5C254.618 35.7044 254.354 34.0915 253.798 32.6828L251.938 33.4172C252.382 34.5419 252.618 35.8956 252.618 37.5H254.618ZM253.801 32.691C253.27 31.3092 252.601 30.1795 251.757 29.3759L250.378 30.8241C250.934 31.3538 251.466 32.1908 251.934 33.409L253.801 32.691ZM251.775 29.3929C250.977 28.5947 250.031 27.9733 248.95 27.526L248.185 29.374C249.038 29.7267 249.759 30.2053 250.361 30.8071L251.775 29.3929ZM284.04 25.3L284.783 24.631L284.766 24.6115L284.747 24.5929L284.04 25.3ZM284.14 26.45L285.014 26.9368L285.017 26.9305L285.021 26.9241L284.14 26.45ZM275.39 42.15L274.517 41.6632L274.241 42.1569L274.522 42.6473L275.39 42.15ZM284.79 58.55L285.684 58.1028L285.672 58.0774L285.658 58.0527L284.79 58.55ZM282.64 59.7L281.772 60.1961L281.789 60.226L281.808 60.2547L282.64 59.7ZM274.04 44.65L274.908 44.1539L274.018 42.5952L273.161 44.1729L274.04 44.65ZM266.44 58.65L267.298 59.1645L267.309 59.146L267.319 59.1271L266.44 58.65ZM262.79 25.3L262.083 24.5929L262.051 24.625L262.022 24.6598L262.79 25.3ZM264.74 25.3L263.972 25.9402L264.001 25.975L264.033 26.0071L264.74 25.3ZM265.04 56H264.04L265.917 56.4799L265.04 56ZM274.94 37.9L274.069 37.409L274.063 37.4201L274.94 37.9ZM282.04 25.3L281.208 24.7453L281.187 24.7765L281.169 24.8091L282.04 25.3ZM282.74 26H283.29V24H282.74V26ZM283.29 26C283.309 26 283.321 26.0016 283.327 26.0026C283.332 26.0036 283.333 26.0043 283.331 26.0035C283.329 26.0027 283.327 26.0015 283.326 26.0008C283.325 26.0001 283.327 26.0015 283.333 26.0071L284.747 24.5929C284.347 24.1931 283.837 24 283.29 24V26ZM283.297 25.969C283.314 25.9882 283.314 25.9928 283.308 25.9811C283.306 25.9754 283.302 25.9671 283.3 25.9565C283.297 25.9458 283.295 25.9348 283.294 25.9241C283.293 25.9135 283.293 25.9051 283.294 25.8997C283.294 25.8944 283.295 25.8931 283.294 25.8965C283.292 25.9037 283.284 25.9298 283.26 25.9759L285.021 26.9241C285.204 26.5833 285.324 26.1843 285.286 25.7509C285.248 25.3083 285.054 24.9314 284.783 24.631L283.297 25.969ZM283.267 25.9632L274.517 41.6632L276.264 42.6368L285.014 26.9368L283.267 25.9632ZM274.522 42.6473L283.922 59.0473L285.658 58.0527L276.258 41.6527L274.522 42.6473ZM283.896 58.9972C283.949 59.1036 283.94 59.1323 283.94 59.1H285.94C285.94 58.7344 285.831 58.3964 285.684 58.1028L283.896 58.9972ZM283.94 59.1C283.94 59.16 283.931 59.169 283.94 59.1464C283.944 59.1344 283.953 59.1157 283.967 59.0937C283.982 59.0715 284 59.0503 284.021 59.0317C284.064 58.9929 284.097 58.9839 284.09 58.9859C284.08 58.989 284.035 59 283.94 59V61C284.403 61 284.937 60.8981 285.359 60.5183C285.801 60.1205 285.94 59.583 285.94 59.1H283.94ZM283.94 59H283.39V61H283.94V59ZM283.39 59C283.291 59 283.271 58.9855 283.299 58.9965C283.315 59.003 283.344 59.0171 283.378 59.0437C283.413 59.071 283.446 59.1056 283.472 59.1453L281.808 60.2547C282.21 60.8577 282.874 61 283.39 61V59ZM283.508 59.2039L274.908 44.1539L273.172 45.1461L281.772 60.1961L283.508 59.2039ZM273.161 44.1729L265.561 58.1729L267.319 59.1271L274.919 45.1271L273.161 44.1729ZM265.583 58.1355C265.051 59.0215 264.648 59.15 264.44 59.15V61.15C265.698 61.15 266.629 60.2785 267.298 59.1645L265.583 58.1355ZM264.44 59.15C263.974 59.15 263.805 59.03 263.74 58.9613C263.666 58.8829 263.54 58.675 263.54 58.15H261.54C261.54 58.9584 261.731 59.7504 262.29 60.3387C262.858 60.9367 263.639 61.15 264.44 61.15V59.15ZM263.54 58.15V26H261.54V58.15H263.54ZM263.54 26C263.54 25.9725 263.544 25.9621 263.544 25.9613C263.545 25.9602 263.545 25.9586 263.547 25.956C263.548 25.9533 263.552 25.948 263.558 25.9402L262.022 24.6598C261.701 25.0442 261.54 25.5056 261.54 26H263.54ZM263.497 26.0071C263.503 26.0015 263.505 26.0001 263.504 26.0008C263.503 26.0015 263.501 26.0027 263.499 26.0035C263.497 26.0043 263.498 26.0036 263.503 26.0026C263.509 26.0016 263.521 26 263.54 26V24C262.993 24 262.483 24.1931 262.083 24.5929L263.497 26.0071ZM263.54 26H264.04V24H263.54V26ZM264.04 26C264.079 26 264.074 26.0063 264.046 25.9941C264.032 25.9883 264.017 25.9798 264.003 25.9687C263.988 25.9578 263.978 25.9473 263.972 25.9402L265.508 24.6598C265.121 24.1957 264.586 24 264.04 24V26ZM264.033 26.0071C264.044 26.0178 264.048 26.0241 264.049 26.0255C264.05 26.0267 264.048 26.0244 264.046 26.0189C264.044 26.0133 264.042 26.0075 264.041 26.0024C264.04 25.9974 264.04 25.9962 264.04 26H266.04C266.04 25.4508 265.822 24.9678 265.447 24.5929L264.033 26.0071ZM264.04 26V56H266.04V26H264.04ZM265.917 56.4799L275.817 38.3799L274.063 37.4201L264.163 55.5201L265.917 56.4799ZM275.811 38.3909L282.911 25.7909L281.169 24.8091L274.069 37.4091L275.811 38.3909ZM282.872 25.8547C282.851 25.886 282.824 25.9165 282.792 25.9427C282.76 25.9687 282.731 25.9848 282.709 25.9941C282.669 26.0114 282.668 26 282.74 26V24C282.214 24 281.593 24.1672 281.208 24.7453L282.872 25.8547ZM306.955 25.4L306.06 25.8472L306.073 25.872L306.087 25.8961L306.955 25.4ZM307.005 26.5H306.005V30.1103L307.862 27.0145L307.005 26.5ZM307.005 26.45H308.005L306.128 25.969L307.005 26.45ZM298.555 41.85L299.387 42.4047L299.411 42.3688L299.432 42.331L298.555 41.85ZM298.005 42.6L297.298 41.8929L297.005 42.1858V42.6H298.005ZM295.505 42.55H296.505V42.1358L296.212 41.8429L295.505 42.55ZM295.055 41.95L295.923 41.4538L295.917 41.4425L295.055 41.95ZM285.955 26.5L286.817 25.9925L286.812 25.9855L285.955 26.5ZM286.005 25.4L286.873 25.8961L286.887 25.872L286.899 25.8472L286.005 25.4ZM288.255 25.45L289.119 24.9469L289.085 24.889L289.044 24.8361L288.255 25.45ZM296.755 40.05L295.891 40.5531L296.783 42.0859L297.633 40.5291L296.755 40.05ZM304.805 25.3L303.973 24.7453L303.948 24.7821L303.927 24.8209L304.805 25.3ZM305.605 26H306.155V24H305.605V26ZM306.155 26C306.25 26 306.252 26.0167 306.208 25.9944C306.183 25.9823 306.153 25.9621 306.123 25.9321C306.093 25.9021 306.073 25.8714 306.06 25.8472L307.849 24.9528C307.488 24.2306 306.783 24 306.155 24V26ZM306.087 25.8961C306.129 25.9704 306.148 26.018 306.156 26.0412C306.164 26.065 306.155 26.0483 306.155 26H308.155C308.155 25.5836 307.995 25.2051 307.823 24.9039L306.087 25.8961ZM306.155 26C306.155 25.9915 306.156 25.9835 306.157 25.9767C306.158 25.9698 306.159 25.965 306.16 25.9627C306.161 25.9577 306.16 25.9652 306.147 25.9855L307.862 27.0145C308.04 26.7186 308.155 26.3762 308.155 26H306.155ZM308.005 26.5V26.45H306.005V26.5H308.005ZM306.128 25.969L297.678 41.369L299.432 42.331L307.882 26.931L306.128 25.969ZM297.723 41.2953C297.594 41.4888 297.49 41.6378 297.411 41.7461C297.323 41.8666 297.29 41.9008 297.298 41.8929L298.712 43.3071C298.896 43.1234 299.135 42.783 299.387 42.4047L297.723 41.2953ZM297.005 42.6V59H299.005V42.6H297.005ZM297.005 59C297.005 59.0038 297.005 59.0026 297.006 58.9976C297.007 58.9925 297.008 58.9867 297.011 58.9811C297.013 58.9756 297.015 58.9733 297.014 58.9745C297.013 58.9759 297.008 58.9822 296.998 58.9929L298.412 60.4071C298.787 60.0322 299.005 59.5492 299.005 59H297.005ZM296.998 58.9929C296.987 59.0035 296.981 59.0081 296.979 59.0091C296.978 59.0099 296.98 59.0082 296.986 59.0059C296.992 59.0035 296.997 59.0017 297.003 59.0007C297.007 58.9997 297.009 59 297.005 59V61C297.554 61 298.037 60.782 298.412 60.4071L296.998 58.9929ZM297.005 59H296.505V61H297.005V59ZM296.505 59C296.501 59 296.502 58.9997 296.507 59.0007C296.512 59.0017 296.518 59.0035 296.524 59.0059C296.529 59.0082 296.532 59.0099 296.53 59.0091C296.529 59.0081 296.523 59.0035 296.512 58.9929L295.098 60.4071C295.473 60.782 295.956 61 296.505 61V59ZM296.512 58.9929C296.501 58.9822 296.497 58.9759 296.496 58.9745C296.495 58.9733 296.497 58.9756 296.499 58.9811C296.501 58.9867 296.503 58.9925 296.504 58.9976C296.505 59.0026 296.505 59.0038 296.505 59H294.505C294.505 59.5492 294.723 60.0322 295.098 60.4071L296.512 58.9929ZM296.505 59V42.55H294.505V59H296.505ZM296.212 41.8429C296.116 41.7471 296.018 41.6206 295.923 41.4539L294.187 42.4461C294.358 42.7461 294.56 43.0195 294.798 43.2571L296.212 41.8429ZM295.917 41.4425L286.817 25.9925L285.093 27.0075L294.193 42.4575L295.917 41.4425ZM286.812 25.9855C286.8 25.9652 286.799 25.9577 286.8 25.9627C286.801 25.965 286.802 25.9698 286.803 25.9767C286.804 25.9835 286.805 25.9915 286.805 26H284.805C284.805 26.3762 284.92 26.7186 285.097 27.0145L286.812 25.9855ZM286.805 26C286.805 26.0483 286.796 26.065 286.804 26.0412C286.811 26.018 286.831 25.9704 286.873 25.8961L285.137 24.9039C284.964 25.2051 284.805 25.5836 284.805 26H286.805ZM286.899 25.8472C286.887 25.8714 286.867 25.9021 286.837 25.9321C286.807 25.9621 286.776 25.9823 286.752 25.9944C286.707 26.0167 286.71 26 286.805 26V24C286.177 24 285.472 24.2306 285.11 24.9528L286.899 25.8472ZM286.805 26H287.405V24H286.805V26ZM287.405 26C287.413 26 287.413 26.0008 287.409 25.9998C287.405 25.9988 287.401 25.9972 287.399 25.9963C287.395 25.994 287.42 26.0052 287.466 26.0639L289.044 24.8361C288.652 24.3312 288.093 24 287.405 24V26ZM287.391 25.9531L295.891 40.5531L297.619 39.5469L289.119 24.9469L287.391 25.9531ZM297.633 40.5291L305.683 25.7791L303.927 24.8209L295.877 39.5709L297.633 40.5291ZM305.637 25.8547C305.605 25.9028 305.567 25.941 305.53 25.9687C305.494 25.9956 305.466 26.0075 305.456 26.0113C305.446 26.0149 305.452 26.0116 305.478 26.0077C305.504 26.0038 305.546 26 305.605 26V24C305.095 24 304.389 24.1214 303.973 24.7453L305.637 25.8547Z" fill="#FFFA7B"/>
</g>
<path d="M138.741 9.90351C140.279 8.36612 142.046 7.40531 143.956 6.5947C143.961 6.47749 144.41 6.3238 144.554 6.24135C144.735 6.13833 144.832 5.91923 145.019 5.81991C145.496 5.56775 145.693 5.3258 146.262 5.3258C146.777 5.3258 148.855 6.48209 149.205 6.04516C149.324 5.89647 149.795 5.9754 149.989 5.87804C150.248 5.74896 150.559 5.52621 150.84 5.46386C151.101 5.40574 152.487 4.51082 152.576 4.57012C152.647 4.61749 153.92 3.69918 154.044 3.56012C154.665 2.86152 155.854 2.68575 156.66 2.34666C157.147 2.14142 157.602 2.07145 158.128 1.89615C158.977 1.61289 159.922 1.00968 160.838 1.00968C161.976 1.00968 163.263 0.877394 164.18 1.59097C165.244 2.41807 166.128 3.28467 167.058 4.21407C167.264 4.42016 167.54 4.51147 167.748 4.70091C167.961 4.89428 168.057 5.21814 168.3 5.35487C168.805 5.63872 169.058 6.44533 169.543 6.82264C169.752 6.98547 170.043 7.26791 170.262 7.38941C170.573 7.56202 170.501 7.89706 170.72 8.07243C171.267 8.51001 171.875 8.67363 172.587 8.72639C173.339 8.78206 173.915 9.07801 174.644 9.24955C175.086 9.3536 175.625 9.49896 176.075 9.51114C176.418 9.52041 176.949 9.39369 177.223 9.61286C177.635 9.94232 178.283 10.189 178.764 10.4557C179.198 10.6972 179.84 10.9672 180.202 11.2841C181.233 12.1858 182.184 13.0624 183.145 14.0235C183.441 14.3198 183.682 14.7604 183.864 15.1352C184.146 15.7133 184.434 15.9659 184.845 16.3777C185.218 16.7501 185.555 17.1454 185.928 17.5185C186.603 18.193 187.588 19.2345 187.948 20.1343C188.371 21.1909 189.874 22.0722 190.012 23.2443C190.071 23.7498 190.441 24.1614 190.542 24.6176C190.72 25.4168 190.844 26.2282 191.029 27.0372C191.613 29.591 192.212 32.1426 193.078 34.6159C193.122 34.7402 193.195 35.118 192.991 34.9138C192.935 34.858 192.816 34.7539 192.816 34.7539C192.816 34.7539 192.889 35.1886 192.889 35.4079C192.889 36.2701 192.756 36.9467 192.439 37.7621C192.055 38.7486 192.235 39.9329 192.235 40.9738V43.4152V46.656C192.235 48.0221 192.491 49.3778 192.366 50.7541C192.347 50.9651 192.142 51.1139 192.039 51.2991C191.863 51.6151 191.715 51.9545 191.552 52.28C191.308 52.768 191.143 53.2195 190.796 53.6533C190.533 53.9824 189.599 53.4825 189.387 53.7478C189.013 54.2152 188.478 54.5547 188.181 55.2228C187.64 56.4401 186.48 57.714 186.48 59.1466C186.48 59.7216 186.257 60.6705 185.855 61.0721C185.482 61.4456 184.915 62.2202 184.322 62.2202C183.757 62.2202 183.261 62.1951 182.753 62.0821C182.456 62.0161 182.357 61.697 182.033 61.697C181.717 61.697 181.407 61.7284 181.118 61.8569C180.547 62.1107 180 62.0894 179.352 62.0894C178.839 62.0894 179.452 60.4816 178.764 60.5199C178.244 60.5488 177.735 61.6788 177.39 62.024C176.968 62.4461 176.837 62.8689 176.279 63.1648C175.241 63.7142 174.11 64.3005 173.11 64.9668C172.271 65.5264 171.42 65.7482 170.524 66.173C169.964 66.4381 169.446 66.4775 168.889 66.8633C168.28 67.2846 167.522 67.6369 166.862 68.0041C166.28 68.327 165.794 68.6749 165.169 68.9487C164.836 69.0941 164.573 69.3616 164.246 69.5155C163.981 69.6402 164.303 68.938 163.853 69.4137C163.436 69.8559 163 70.4263 162.618 70.9178C162.292 71.3369 161.869 71.8622 161.601 72.2911C161.372 72.6576 160.312 72.369 159.995 72.2984C159.403 72.1669 158.921 72.8927 158.556 73.2576C158.152 73.6614 157.689 74.1877 157.183 74.4855C157.158 74.5004 155.804 75.2689 154.989 74.6163C154.862 74.5151 154.511 74.4421 154.436 74.3111C154.224 73.9399 153.982 73.5939 153.782 73.2067C153.468 72.5949 152.857 72.4418 152.474 71.9642C152.35 71.8086 152.009 71.7673 151.85 71.6081C151.637 71.3957 151.635 71.114 151.297 71.114C150.706 71.114 150.555 71.6652 150.316 72.095C149.126 74.2385 149.335 76.9764 149.335 79.383C149.335 80.1379 149.564 81.1015 148.878 81.6355C148.517 81.9163 148.216 82.2815 147.868 82.5946C147.555 82.876 147.069 83.0981 146.85 83.4811C146.527 84.0478 145.881 83.9316 145.281 83.9316C144.199 83.9316 144.309 81.45 143.908 80.7272C143.314 79.6581 142.534 78.0439 142.534 76.8035C142.534 76.5659 142.647 76.1661 142.534 75.9824C142.364 75.7061 142.142 75.3082 142.142 74.9724C142.142 74.2836 142.128 73.2038 141.909 72.5237C141.454 71.1083 140.873 69.8554 140.151 68.5563C139.868 68.0462 139.161 68.0789 138.613 68.0992C138.575 68.1329 138.51 68.1778 138.407 68.2366C137.613 68.6904 137.47 70.1985 136.322 70.1985C135.088 70.1985 134.745 69.0992 134.229 68.1712C133.897 67.5728 133.882 66.925 133.481 66.3474C132.846 65.4338 132.443 64.0907 132.202 63.0049C132.046 62.305 131.736 61.7298 131.613 61.0431C131.472 60.2501 131.424 59.3373 131.184 58.529C131.033 58.0173 131.048 57.9147 130.581 58.4854C130.445 58.6516 130.14 58.8926 129.913 58.9431C129.441 59.0481 128.835 59.1092 128.511 58.558C128.273 58.155 127.39 57.4634 127.362 56.9885C127.342 56.6359 126.781 55.4653 127.166 55.1574C127.345 55.0142 126.826 53.6669 126.738 53.4571C126.458 52.7921 126.615 51.7038 126.12 51.1102C125.559 50.4374 125.579 49.0513 125.204 48.2182C124.869 47.4727 124.507 46.4874 124.485 45.6678C124.472 45.1859 124.462 44.5306 124.325 44.0692C124.243 43.7931 124.059 43.3491 124.412 43.2481C124.582 43.1997 124.086 42.3699 124.035 42.2745C123.594 41.4566 123.571 40.5395 123.046 39.7531C122.091 38.3203 122 36.5362 122 34.8557C122 33.0906 122.143 31.337 122.756 29.6821C122.909 29.269 123.084 28.7875 123.17 28.3597C123.198 28.2166 123.271 28.4027 123.337 28.4469C123.42 28.5023 123.549 27.9764 123.57 27.9237C123.94 26.9652 124.604 26.1808 125.008 25.2715C125.33 24.5485 125.901 23.9393 126.287 23.2443C126.384 23.0691 126.839 22.313 126.839 22.5249C126.839 22.7572 126.998 22.9838 127.094 22.6484C127.166 22.3961 127.085 22.0674 127.101 21.8056C127.123 21.4235 127.728 21.0263 127.886 20.6575C128.298 19.6951 129.037 19.1403 129.521 18.2814C130.043 17.3533 130.754 16.5444 131.315 15.6293C131.619 15.1345 132.649 13.0587 133.444 13.5003C134.216 13.9292 136.164 13.3729 136.547 12.6501C137.076 11.6506 137.948 10.6973 138.741 9.90351Z" fill="#FFF963"/>
<path d="M145.15 6.11055C142.781 7.03497 140.594 8.05037 138.741 9.90351C137.948 10.6973 137.076 11.6506 136.547 12.6501C136.164 13.3729 134.216 13.9292 133.444 13.5003C132.649 13.0587 131.619 15.1345 131.315 15.6293C130.754 16.5444 130.043 17.3533 129.521 18.2814C129.037 19.1403 128.298 19.6951 127.886 20.6575C127.728 21.0263 127.123 21.4235 127.101 21.8056C127.085 22.0674 127.166 22.3961 127.094 22.6484C126.998 22.9838 126.839 22.7572 126.839 22.5249C126.839 22.313 126.384 23.0691 126.287 23.2443C125.901 23.9393 125.33 24.5485 125.008 25.2715C124.604 26.1808 123.94 26.9652 123.57 27.9237C123.549 27.9764 123.42 28.5023 123.337 28.4469C123.271 28.4027 123.198 28.2166 123.17 28.3597C123.084 28.7875 122.909 29.269 122.756 29.6821C122.143 31.337 122 33.0906 122 34.8557C122 36.5362 122.091 38.3203 123.046 39.7531C123.571 40.5395 123.594 41.4566 124.035 42.2745C124.086 42.3699 124.582 43.1997 124.412 43.2481C124.059 43.3491 124.243 43.7931 124.325 44.0692C124.462 44.5306 124.472 45.1859 124.485 45.6678C124.507 46.4874 124.869 47.4727 125.204 48.2182C125.579 49.0513 125.559 50.4374 126.12 51.1102C126.615 51.7038 126.458 52.7921 126.738 53.4571C126.826 53.6669 127.345 55.0142 127.166 55.1574C126.781 55.4653 127.342 56.6359 127.362 56.9885C127.39 57.4634 128.273 58.1551 128.511 58.558C128.835 59.1092 129.441 59.0481 129.913 58.9431C130.14 58.8926 130.445 58.6516 130.581 58.4854C131.048 57.9147 131.033 58.0173 131.184 58.529C131.424 59.3373 131.472 60.2501 131.613 61.0431C131.736 61.7298 132.046 62.305 132.202 63.0049C132.443 64.0907 132.846 65.4338 133.481 66.3474C133.882 66.9251 133.897 67.5728 134.229 68.1712C134.745 69.0992 135.088 70.1985 136.322 70.1985C137.47 70.1985 137.613 68.6904 138.407 68.2366C139.139 67.8182 137.973 68.1058 138.349 68.1058C138.908 68.1058 139.819 67.9592 140.151 68.5563C140.873 69.8554 141.454 71.1083 141.909 72.5237C142.128 73.2038 142.142 74.2836 142.142 74.9724C142.142 75.3082 142.364 75.7061 142.534 75.9824C142.647 76.1661 142.534 76.5659 142.534 76.8035C142.534 78.0439 143.314 79.6581 143.908 80.7272C144.309 81.45 144.199 83.9316 145.281 83.9316C145.881 83.9316 146.527 84.0478 146.85 83.4811C147.069 83.0981 147.555 82.876 147.868 82.5946C148.216 82.2815 148.517 81.9163 148.878 81.6355C149.564 81.1015 149.335 80.1379 149.335 79.383C149.335 76.9764 149.126 74.2385 150.316 72.095C150.555 71.6652 150.706 71.114 151.297 71.114C151.635 71.114 151.637 71.3957 151.85 71.6081C152.009 71.7673 152.35 71.8086 152.474 71.9642C152.857 72.4418 153.468 72.5949 153.782 73.2067C153.982 73.594 154.224 73.9399 154.436 74.3111C154.511 74.4421 154.862 74.5151 154.989 74.6163C155.804 75.2689 157.158 74.5004 157.183 74.4855C157.689 74.1877 158.152 73.6614 158.556 73.2576C158.921 72.8927 159.403 72.1669 159.995 72.2984C160.312 72.369 161.372 72.6576 161.601 72.2911C161.869 71.8622 162.292 71.3369 162.618 70.9178C163 70.4263 163.436 69.8559 163.853 69.4137C164.303 68.938 163.981 69.6402 164.246 69.5155C164.573 69.3616 164.836 69.0941 165.169 68.9487C165.794 68.675 166.28 68.327 166.862 68.0041C167.522 67.6369 168.28 67.2846 168.889 66.8633C169.446 66.4775 169.964 66.4381 170.524 66.173C171.42 65.7482 172.271 65.5264 173.11 64.9668C174.11 64.3005 175.241 63.7142 176.279 63.1648C176.837 62.8689 176.968 62.4461 177.39 62.024C177.735 61.6788 178.244 60.5488 178.764 60.5199C179.452 60.4816 178.839 62.0894 179.352 62.0894C180 62.0894 180.547 62.1107 181.118 61.8569C181.407 61.7284 181.717 61.697 182.033 61.697C182.357 61.697 182.456 62.0161 182.753 62.0821C183.261 62.1951 183.757 62.2202 184.322 62.2202C184.915 62.2202 185.482 61.4456 185.855 61.0721C186.257 60.6705 186.48 59.7216 186.48 59.1466C186.48 57.714 187.64 56.4401 188.181 55.2228C188.478 54.5547 189.013 54.2152 189.387 53.7478C189.599 53.4825 190.533 53.9824 190.796 53.6533C191.143 53.2195 191.308 52.768 191.552 52.28C191.715 51.9545 191.863 51.6151 192.039 51.2991C192.142 51.1139 192.347 50.9651 192.366 50.7541C192.491 49.3778 192.235 48.0221 192.235 46.656C192.235 45.5757 192.235 44.4955 192.235 43.4152C192.235 42.6014 192.235 41.7876 192.235 40.9738C192.235 39.9329 192.055 38.7486 192.439 37.7621C192.756 36.9467 192.889 36.2701 192.889 35.4079C192.889 35.1886 192.816 34.7539 192.816 34.7539C192.816 34.7539 192.935 34.858 192.991 34.9138C193.195 35.118 193.122 34.7402 193.078 34.6159C192.212 32.1426 191.613 29.591 191.029 27.0372C190.844 26.2282 190.72 25.4168 190.542 24.6176C190.441 24.1614 190.071 23.7498 190.012 23.2443C189.874 22.0722 188.371 21.1909 187.948 20.1343C187.588 19.2345 186.603 18.193 185.928 17.5185C185.555 17.1454 185.218 16.7501 184.845 16.3777C184.434 15.9659 184.146 15.7133 183.864 15.1352C183.682 14.7604 183.441 14.3198 183.145 14.0235C182.184 13.0624 181.233 12.1858 180.202 11.2841C179.84 10.9672 179.198 10.6972 178.764 10.4557C178.283 10.189 177.635 9.94232 177.223 9.61286C176.949 9.39369 176.418 9.52041 176.075 9.51114C175.625 9.49896 175.086 9.3536 174.644 9.24955C173.915 9.07801 173.339 8.78206 172.587 8.72639C171.875 8.67363 171.267 8.51001 170.72 8.07243C170.501 7.89706 170.573 7.56202 170.262 7.38941C170.043 7.26791 169.752 6.98547 169.543 6.82264C169.058 6.44533 168.805 5.63872 168.3 5.35487C168.057 5.21814 167.961 4.89428 167.748 4.70091C167.54 4.51147 167.264 4.42016 167.058 4.21407C166.128 3.28467 165.244 2.41807 164.18 1.59097C163.263 0.877394 161.976 1.00968 160.838 1.00968C159.922 1.00968 158.977 1.61289 158.128 1.89615C157.602 2.07145 157.147 2.14142 156.66 2.34666C155.854 2.68575 154.665 2.86152 154.044 3.56012C153.92 3.69918 152.647 4.61749 152.576 4.57012C152.487 4.51082 151.101 5.40574 150.84 5.46386C150.559 5.52621 150.248 5.74896 149.989 5.87804C149.795 5.9754 149.324 5.89647 149.205 6.04516C148.855 6.48209 146.777 5.3258 146.262 5.3258C145.693 5.3258 145.496 5.56775 145.019 5.81991C144.832 5.91923 144.735 6.13833 144.554 6.24135C144.393 6.33334 143.853 6.51397 143.973 6.63372" stroke="black" stroke-linecap="round"/>
<path d="M146.639 14.6485C146.994 13.9654 147.308 13.3552 147.481 12.5972C147.649 12.3165 147.801 11.8006 148.019 11.5552C148.17 11.3861 148.691 11.0459 148.915 11.0327C149.581 10.9935 150.471 11.3895 150.818 12.0071C151.082 12.4753 151.464 12.9564 151.532 13.4999C151.61 14.1313 151.862 14.6892 152.013 15.2913C152.323 16.5319 152.174 17.8066 152.556 19.0356C152.795 19.8081 152.423 20.5832 152.423 21.6314C152.423 22.4096 152.483 23.2845 152.274 24.0364C151.909 25.3445 151.576 26.7818 151.527 28.1416C151.504 28.7988 151.548 29.5289 151.449 30.1776C151.289 31.2155 151.362 32.2532 151.561 33.2751C151.637 33.6676 151.663 34.0393 151.768 34.4278C151.924 35.0046 152.124 35.5764 152.124 36.1818C152.124 36.7108 151.937 37.2434 151.635 37.6829C151.434 37.9755 150.584 38.8185 150.142 38.6325C149.819 38.4965 149.249 38.4252 148.915 38.4252C148.61 38.4252 148.415 37.9802 148.301 37.7534C148.222 37.5944 148.13 37.3747 148.098 37.1978C148.035 36.8482 147.731 36.501 147.571 36.186C147.214 35.4808 147.049 34.7631 147.049 33.9841V31.3013V29.8417C147.049 29.6637 147.114 29.3335 147.032 29.1699C146.941 28.9877 146.718 28.8736 146.601 28.7055C146.202 28.1296 145.919 27.5015 145.647 26.8561C145.593 26.7267 145.556 26.3679 145.556 26.2258C145.556 25.8421 145.312 25.4571 145.216 25.0897C145.075 24.5475 145.129 23.7212 145.2 23.1822C145.301 22.411 145.332 21.6263 145.332 20.8477C145.332 20.0741 145.4 19.2707 145.477 18.5007C145.508 18.1982 145.444 17.8846 145.498 17.5843C145.571 17.1859 145.802 16.8017 145.851 16.4108C145.921 15.8486 146.37 15.1644 146.639 14.6485Z" fill="black"/>
<path d="M147.497 12.5255C147.327 13.317 147.005 13.944 146.639 14.6485C146.37 15.1644 145.921 15.8486 145.851 16.4108C145.802 16.8017 145.571 17.1859 145.498 17.5843C145.444 17.8846 145.508 18.1982 145.477 18.5007C145.4 19.2707 145.332 20.0741 145.332 20.8477C145.332 21.6263 145.301 22.411 145.2 23.1822C145.129 23.7212 145.075 24.5475 145.216 25.0897C145.312 25.4571 145.556 25.8421 145.556 26.2258C145.556 26.3679 145.593 26.7267 145.647 26.8561C145.919 27.5015 146.202 28.1296 146.601 28.7055C146.718 28.8736 146.941 28.9877 147.032 29.1699C147.114 29.3335 147.049 29.6637 147.049 29.8417C147.049 30.3282 147.049 30.8148 147.049 31.3013C147.049 32.183 147.049 33.1028 147.049 33.9841C147.049 34.7631 147.214 35.4808 147.571 36.186C147.731 36.501 148.035 36.8482 148.098 37.1978C148.13 37.3747 148.222 37.5944 148.301 37.7534C148.415 37.9802 148.61 38.4252 148.915 38.4252C149.249 38.4252 149.819 38.4965 150.142 38.6325C150.584 38.8185 151.434 37.9755 151.635 37.6829C151.937 37.2434 152.124 36.7108 152.124 36.1818C152.124 35.5764 151.924 35.0046 151.768 34.4278C151.663 34.0393 151.637 33.6676 151.561 33.2751C151.362 32.2532 151.289 31.2155 151.449 30.1776C151.548 29.5289 151.504 28.7988 151.527 28.1416C151.576 26.7818 151.909 25.3445 152.274 24.0364C152.483 23.2845 152.423 22.4096 152.423 21.6314C152.423 20.5832 152.795 19.8081 152.556 19.0356C152.174 17.8066 152.323 16.5319 152.013 15.2913C151.862 14.6892 151.61 14.1313 151.532 13.4999C151.464 12.9564 151.082 12.4753 150.818 12.0071C150.471 11.3895 149.581 10.9935 148.915 11.0327C148.691 11.0459 148.17 11.3861 148.019 11.5552C147.801 11.8006 147.649 12.3165 147.481 12.5972" stroke="black" stroke-linecap="round"/>
<path d="M164.403 15.0342C164.669 14.1151 165.418 13.1254 166.012 12.2331C166.067 12.0343 166.251 11.772 166.45 11.5291C166.662 11.271 166.892 11.0349 167.007 10.9207C167.178 10.7492 167.361 10.7341 167.612 10.7341C168.367 10.7341 169.07 11.6831 169.291 12.3015C169.554 13.0339 169.811 13.767 170.075 14.4992C170.298 15.119 170.438 15.793 170.676 16.4067C171.04 17.3417 170.933 18.3728 170.933 19.3591C170.933 20.1886 170.756 21.0011 170.631 21.818C170.562 22.265 170.458 22.6509 170.486 23.1242C170.502 23.4076 170.355 23.7187 170.299 24.0157C170.2 24.5413 170.109 25.0547 170.054 25.5873C169.949 26.6085 170.005 27.6449 169.893 28.6558C169.767 29.7838 169.95 30.6733 169.407 31.6994C169.288 31.9255 168.782 32.9019 168.433 32.9019H167.645C167.167 32.9019 166.784 32.5591 166.455 32.2301C166.102 31.8769 165.496 31.6046 165.414 31.0359C165.279 30.0853 165.2 29.0166 164.664 28.183C163.359 26.1536 163.47 23.5 163.47 21.167C163.47 20.2301 163.317 19.1468 163.511 18.2312C163.74 17.1499 164.095 16.0936 164.403 15.0342Z" fill="black"/>
<path d="M166.45 11.5291C165.862 12.5812 164.742 13.8648 164.403 15.0342C164.095 16.0936 163.74 17.1499 163.511 18.2312C163.317 19.1468 163.47 20.2301 163.47 21.167C163.47 23.5 163.359 26.1536 164.664 28.183C165.2 29.0166 165.279 30.0853 165.414 31.0359C165.496 31.6046 166.102 31.8769 166.455 32.2301C166.784 32.5591 167.167 32.9019 167.645 32.9019C167.908 32.9019 168.17 32.9019 168.433 32.9019C168.782 32.9019 169.288 31.9255 169.407 31.6994C169.95 30.6733 169.767 29.7838 169.893 28.6558C170.005 27.6449 169.949 26.6085 170.054 25.5873C170.109 25.0547 170.2 24.5413 170.299 24.0157C170.355 23.7187 170.502 23.4076 170.486 23.1242C170.458 22.6509 170.562 22.265 170.631 21.818C170.756 21.0011 170.933 20.1886 170.933 19.3591C170.933 18.3728 171.04 17.3417 170.676 16.4067C170.438 15.793 170.298 15.119 170.075 14.4992C169.811 13.767 169.554 13.0339 169.291 12.3015C169.07 11.6831 168.367 10.7341 167.612 10.7341C167.361 10.7341 167.178 10.7492 167.007 10.9207C166.764 11.1637 165.995 11.9584 165.995 12.3434" stroke="black" stroke-linecap="round"/>
<path d="M134.601 43.9321C134.529 43.5349 134.506 42.7706 134.499 42.2848C133.617 42.1734 131.883 41.9168 132.007 41.636C132.323 40.925 133.286 40.4807 134.006 40.3208C135.202 40.0549 136.417 40.0665 137.661 40.0665C137.896 40.0665 138.682 39.9535 138.772 40.2699C138.874 40.6249 138.366 41.0826 138.155 41.2726C137.846 41.5506 137.351 41.5052 136.948 41.5052C136.842 41.5052 136.687 41.2174 136.687 41.3235V41.8975C136.687 42.7554 136.948 43.4696 136.948 44.3172C136.948 44.9651 137.079 45.569 137.079 46.2137C137.079 46.73 137.303 47.1345 137.341 47.6233C137.401 48.4058 138.353 49.0351 138.525 49.8104C138.724 50.7043 139.875 51.2622 140.218 52.0339C140.416 52.4799 140.775 52.8727 140.879 53.3418C140.973 53.7649 141.534 54.1199 141.65 54.5262C141.743 54.8535 141.91 55.1975 142.078 55.4999C142.311 55.9194 142.573 56.3148 142.834 56.7061C143.117 57.1312 143.317 57.8945 143.75 58.1448C144.155 58.3795 145.445 59.335 145.944 59.0022C146.342 58.7366 146.867 58.7697 147.346 58.7697C147.837 58.7697 149.359 58.8828 149.635 59.3655C149.815 59.6796 150.215 59.7777 150.42 60.1357C150.607 60.4625 151.122 60.4839 151.365 60.7025C152.981 62.1576 154.957 60.9158 156.829 60.8623C157.716 60.837 158.277 61.1239 159.183 61.1239C160.094 61.1239 160.997 60.9437 161.799 60.5426C162.648 60.1183 163.649 59.94 164.545 59.6198C165.493 59.2813 166.646 59.0686 167.655 59.0313C168.882 58.9858 170.175 58.0386 171.216 57.4908C171.763 57.2027 172.931 56.953 173.309 56.4808C173.945 55.685 175.149 55.2784 175.924 54.5843C176.574 54.0031 177.283 53.3911 177.821 52.746C178.306 52.1642 178.474 50.1374 179.528 50.1374C180.523 50.1374 181.618 49.4768 181.679 48.4371C181.787 46.6055 181.81 44.7414 181.81 42.8785C181.81 42.1462 182.048 40.9151 181.679 40.2699C181.448 39.8655 181.169 39.9284 180.829 39.7395C180.712 39.6745 179.63 39.7506 179.877 39.4416C181.027 38.0038 182.887 39.6 184.295 39.6741C184.805 39.7009 186.441 40.0216 185.632 40.7495C185.078 41.2483 184.135 40.3085 183.583 40.4661C183.403 40.5176 183.51 41.6633 183.51 41.8249C183.51 42.3014 183.673 42.4658 183.765 42.8785C183.944 43.6867 183.772 44.7013 183.772 45.5306C183.772 46.3016 183.97 47.4088 183.743 48.1465C183.594 48.6284 183.436 49.2388 183.379 49.745C183.322 50.2582 182.848 50.923 182.667 51.4381C182.626 51.5552 182.379 52.0873 182.493 52.201C182.635 52.3433 182.782 52.1926 182.595 52.4263C182.388 52.6843 182.38 53.1212 181.941 53.1456C181.183 53.1877 180.411 53.1456 179.652 53.1456C178.811 53.1456 178.19 53.2426 177.755 54.003C177.306 54.7891 176.437 55.2842 175.794 55.8923C175.436 56.2304 174.751 56.4382 174.355 56.6479C173.908 56.8847 173.382 57.0691 172.916 57.3019C172.016 57.7518 171.055 58.2047 170.235 58.8423C169.288 59.5789 167.468 60.3392 166.253 60.3392C165.315 60.3392 164.421 60.4558 163.557 60.8623C162.741 61.2465 161.893 61.493 161.145 61.9741C160.395 62.4563 159.398 62.955 158.5 62.955C157.89 62.955 157.351 63.1155 156.829 63.3764C156.436 63.5729 155.826 63.9771 155.39 64.0013C154.601 64.0452 153.968 63.7398 153.232 63.7398C152.587 63.7398 152.108 63.0757 151.532 62.9477C150.764 62.7771 150.526 61.9087 149.635 61.9087C148.763 61.9087 147.96 61.7909 147.281 62.4318C146.831 62.8567 146.166 63.1152 145.842 63.6816C145.419 64.4216 144.444 64.689 143.851 64.0304C143.311 63.4303 142.957 62.9652 142.253 62.5626C141.45 62.1041 141.429 60.7833 141.257 60.0122C141.02 58.9458 140.565 57.9478 140.116 56.9386C139.49 55.5287 138.898 54.1322 138.256 52.6879C137.916 51.9214 137.33 51.4178 137.203 50.5298C137.135 50.0556 136.77 49.6592 136.68 49.1637C136.616 48.8137 136.406 48.2825 136.193 48.0157C136.025 47.8059 135.668 46.9826 135.64 46.7368C135.594 46.3151 135.211 45.8163 135.11 45.3635C135 44.8686 134.693 44.4349 134.601 43.9321Z" fill="black"/>
<path d="M134.495 41.8434C134.495 41.8434 134.49 43.3216 134.601 43.9321C134.693 44.4349 135 44.8686 135.11 45.3635C135.211 45.8163 135.594 46.3151 135.64 46.7368C135.668 46.9826 136.025 47.8059 136.193 48.0157C136.406 48.2825 136.616 48.8137 136.68 49.1637C136.77 49.6592 137.135 50.0556 137.203 50.5298C137.33 51.4178 137.916 51.9214 138.256 52.6879C138.898 54.1322 139.49 55.5287 140.116 56.9386C140.565 57.9478 141.02 58.9458 141.257 60.0122C141.429 60.7833 141.45 62.1041 142.253 62.5626C142.957 62.9652 143.311 63.4303 143.851 64.0304C144.444 64.689 145.419 64.4216 145.842 63.6816C146.166 63.1152 146.831 62.8567 147.281 62.4318C147.96 61.7909 148.763 61.9087 149.635 61.9087C150.526 61.9087 150.764 62.7771 151.532 62.9477C152.108 63.0757 152.587 63.7398 153.232 63.7398C153.968 63.7398 154.601 64.0452 155.39 64.0013C155.826 63.9771 156.436 63.5729 156.829 63.3764C157.351 63.1155 157.89 62.955 158.5 62.955C159.398 62.955 160.395 62.4563 161.145 61.9741C161.893 61.493 162.741 61.2465 163.557 60.8623C164.421 60.4558 165.315 60.3392 166.253 60.3392C167.468 60.3392 169.288 59.5789 170.235 58.8423C171.055 58.2047 172.016 57.7518 172.916 57.3019C173.382 57.0691 173.908 56.8847 174.355 56.6479C174.751 56.4382 175.436 56.2304 175.794 55.8923C176.437 55.2842 177.306 54.7891 177.755 54.003C178.19 53.2426 178.811 53.1456 179.652 53.1456C180.411 53.1456 181.183 53.1877 181.941 53.1456C182.38 53.1212 182.388 52.6843 182.595 52.4263C182.782 52.1926 182.635 52.3433 182.493 52.201C182.379 52.0873 182.626 51.5552 182.667 51.4381C182.848 50.923 183.322 50.2582 183.379 49.745C183.436 49.2388 183.594 48.6284 183.743 48.1465C183.97 47.4088 183.772 46.3016 183.772 45.5306C183.772 44.7013 183.944 43.6867 183.765 42.8785C183.673 42.4658 183.51 42.3014 183.51 41.8249C183.51 41.6633 183.403 40.5176 183.583 40.4661C184.135 40.3085 185.078 41.2483 185.632 40.7495C186.441 40.0216 184.805 39.7009 184.295 39.6741C182.887 39.6 181.027 38.0038 179.877 39.4416C179.63 39.7506 180.712 39.6745 180.829 39.7395C181.169 39.9284 181.448 39.8655 181.679 40.2699C182.048 40.9151 181.81 42.1462 181.81 42.8785C181.81 44.7414 181.787 46.6055 181.679 48.4371C181.618 49.4768 180.523 50.1374 179.528 50.1374C178.474 50.1374 178.306 52.1642 177.821 52.746C177.283 53.3911 176.574 54.0031 175.924 54.5843C175.149 55.2784 173.945 55.685 173.309 56.4808C172.931 56.953 171.763 57.2027 171.216 57.4908C170.175 58.0386 168.882 58.9858 167.655 59.0313C166.646 59.0686 165.493 59.2813 164.545 59.6198C163.649 59.94 162.648 60.1183 161.799 60.5426C160.997 60.9437 160.094 61.1239 159.183 61.1239C158.277 61.1239 157.716 60.837 156.829 60.8623C154.957 60.9158 152.981 62.1576 151.365 60.7025C151.122 60.4839 150.607 60.4625 150.42 60.1357C150.215 59.7777 149.815 59.6796 149.635 59.3655C149.359 58.8828 147.837 58.7697 147.346 58.7697C146.867 58.7697 146.342 58.7366 145.944 59.0022C145.445 59.335 144.155 58.3795 143.75 58.1448C143.317 57.8945 143.117 57.1312 142.834 56.7061C142.573 56.3148 142.311 55.9194 142.078 55.4999C141.91 55.1975 141.743 54.8535 141.65 54.5262C141.534 54.1199 140.973 53.7649 140.879 53.3418C140.775 52.8727 140.416 52.4799 140.218 52.0339C139.875 51.2622 138.724 50.7043 138.525 49.8104C138.353 49.0351 137.401 48.4058 137.341 47.6233C137.303 47.1345 137.079 46.73 137.079 46.2137C137.079 45.569 136.948 44.9651 136.948 44.3172C136.948 43.4696 136.687 42.7554 136.687 41.8975C136.687 41.7062 136.687 41.5149 136.687 41.3235C136.687 41.2174 136.842 41.5052 136.948 41.5052C137.351 41.5052 137.846 41.5506 138.155 41.2726C138.366 41.0826 138.874 40.6249 138.772 40.2699C138.682 39.9535 137.896 40.0665 137.661 40.0665C136.417 40.0665 135.202 40.0549 134.006 40.3208C133.286 40.4807 132.323 40.925 132.007 41.636C131.841 42.0113 134.995 42.3434 134.995 42.3434" stroke="black" stroke-linecap="round"/>
<defs>
<filter id="filter0_d_132_240" x="0.827545" y="21.9" width="113.318" height="43.25" filterUnits="userSpaceOnUse" color-interpolation-filters="sRGB">
<feFlood flood-opacity="0" result="BackgroundImageFix"/>
<feColorMatrix in="SourceAlpha" type="matrix" values="0 0 0 0 0 0 0 0 0 0 0 0 0 0 0 0 0 0 127 0" result="hardAlpha"/>
<feOffset dy="1"/>
<feGaussianBlur stdDeviation="2"/>
<feComposite in2="hardAlpha" operator="out"/>
<feColorMatrix type="matrix" values="0 0 0 0 0.92 0 0 0 0 1 0 0 0 0 0 0 0 0 0.25 0"/>
<feBlend mode="normal" in2="BackgroundImageFix" result="effect1_dropShadow_132_240"/>
<feBlend mode="normal" in="SourceGraphic" in2="effect1_dropShadow_132_240" result="shape"/>
</filter>
<filter id="filter1_d_132_240" x="200.468" y="22" width="110.687" height="43.15" filterUnits="userSpaceOnUse" color-interpolation-filters="sRGB">
<feFlood flood-opacity="0" result="BackgroundImageFix"/>
<feColorMatrix in="SourceAlpha" type="matrix" values="0 0 0 0 0 0 0 0 0 0 0 0 0 0 0 0 0 0 127 0" result="hardAlpha"/>
<feOffset dy="1"/>
<feGaussianBlur stdDeviation="2"/>
<feComposite in2="hardAlpha" operator="out"/>
<feColorMatrix type="matrix" values="0 0 0 0 0.92 0 0 0 0 1 0 0 0 0 0 0 0 0 0.25 0"/>
<feBlend mode="normal" in2="BackgroundImageFix" result="effect1_dropShadow_132_240"/>
<feBlend mode="normal" in="SourceGraphic" in2="effect1_dropShadow_132_240" result="shape"/>
</filter>
</defs>
</svg>
